<?xml version="1.0" encoding="utf-8"?>
<!-- Generator: Adobe Illustrator 16.0.4, SVG Export Plug-In . SVG Version: 6.00 Build 0)  -->
<!DOCTYPE svg PUBLIC "-//W3C//DTD SVG 1.1//EN" "http://www.w3.org/Graphics/SVG/1.1/DTD/svg11.dtd">
<svg version="1.1" id="AMA" xmlns="http://www.w3.org/2000/svg" xmlns:xlink="http://www.w3.org/1999/xlink" x="0px" y="0px"
	 width="246.917px" height="100px" viewBox="0 0 246.917 100" enable-background="new 0 0 246.917 100" xml:space="preserve">
<g>
	<g>
		<path d="M161.356,34.916H152.5v-7.353h8.562v-1.81H152.5v-7.191h8.856v-1.81h-10.841v19.974h10.841V34.916z M165.683,18.562h3.141
			c1.557,0,3.165,0,4.479,0.947c1.129,0.784,1.854,2.189,1.854,3.567c0,1.784-0.94,3.298-2.576,4.055
			c-1.315,0.593-2.924,0.54-4.321,0.54h-0.591l6.736,9.055h2.469l-5.582-7.459c3.223-0.082,5.85-2.729,5.85-6.001
			c0-2.324-1.073-4.379-3.084-5.541c-1.666-0.946-3.758-0.973-5.639-0.973h-4.722v19.974h1.987V18.562z M181.388,16.752h-1.985
			v19.974h1.985V16.752z M194.213,37.078c3.731,0,7.354-2.243,9.07-5.568h-2.2c-1.557,2.189-4.188,3.649-6.87,3.649
			c-4.509,0-8.428-3.811-8.428-8.488c0-4.378,3.786-8.324,8.294-8.324c2.656,0,5.447,1.27,6.924,3.541h2.199
			c-0.535-1.46-2.17-2.974-3.435-3.785c-1.69-1.136-3.701-1.676-5.716-1.676c-5.636,0-10.252,4.568-10.252,10.244
			C183.8,32.563,188.39,37.078,194.213,37.078z M222.952,19.157l11.807,17.569h1.988V16.752h-1.988v16.569l-11.11-16.569h-2.684
			v19.974h1.987V19.157z M152.349,56.165c0.965-1.082,1.637-2.892,1.637-4.352c0-1.865-0.887-3.731-2.307-4.92
			c-1.504-1.27-3.273-1.379-5.154-1.405h-5.741v19.976h3.676v-7.65h0.053l5.153,7.65h4.536l-5.368-7.38
			C150.175,57.786,151.382,57.218,152.349,56.165z M144.459,55.001v-5.919h2.04c1.019,0,1.877,0.027,2.738,0.675
			c0.695,0.514,1.07,1.379,1.07,2.244c0,0.837-0.319,1.595-0.911,2.162c-0.724,0.704-1.958,0.838-2.924,0.838H144.459z
			 M165.558,45.488l-6.173,8.649v-8.649h-3.679v19.976h3.679v-8.758l6.173,8.758h4.398l-7.486-10.164l7.486-9.812H165.558z
			 M182.487,49.083v-3.595h-10.656v19.976h10.656v-3.595h-6.979v-4.596h6.683v-3.594h-6.683v-4.596H182.487z M191.968,65.463V49.083
			h3.702v-3.595h-11.03v3.595h3.65v16.381H191.968z M201.462,65.463V45.488h-3.676v19.976H201.462z M216.452,60.084l-8.264-14.596
			h-4.133v19.976h3.676V50.92l8.319,14.543h4.079V45.488h-3.678V60.084z M222.312,55.597c0,5.866,4.887,10.353,10.603,10.353
			c5.663,0,10.546-4.406,10.546-10.245v-0.432h-12.935v3.486h8.293c-1.073,2.136-3.462,3.594-5.798,3.594
			c-1.902,0-3.781-0.81-5.123-2.243c-1.156-1.189-1.906-2.972-1.906-4.648c0-1.839,0.91-3.812,2.281-5.028
			c1.26-1.108,2.898-1.73,4.589-1.73c1.985,0,4.025,1,5.206,2.649h4.4c-1.502-3.838-5.581-6.243-9.606-6.243
			C227.172,45.11,222.312,49.705,222.312,55.597z M113.834,82.494c-1.823-0.537-3.696-1.1-3.696-3.488
			c0-1.878,1.393-3.46,3.213-3.46c1.924,0,3.292,1.448,3.418,3.46h1.947c0.023-3.031-2.302-5.365-5.137-5.365
			c-2.936,0-5.314,2.146-5.314,5.339c0,1.421,0.531,2.763,1.57,3.702c0.935,0.858,2.123,1.18,3.289,1.501
			c1.063,0.296,2.025,0.564,2.886,1.315c0.782,0.671,1.289,1.744,1.289,2.817c0,2.28-1.746,3.917-3.872,3.917
			c-2.101,0-3.693-1.825-3.744-3.997h-2c-0.024,3.46,2.606,5.902,5.796,5.902c3.036,0,5.691-2.521,5.691-5.795
			c0-1.583-0.632-3.139-1.745-4.159C116.338,83.139,115.173,82.896,113.834,82.494z M126.524,82.494
			c-1.822-0.537-3.693-1.1-3.693-3.488c0-1.878,1.391-3.46,3.213-3.46c1.922,0,3.29,1.448,3.415,3.46h1.949
			c0.025-3.031-2.303-5.365-5.139-5.365c-2.936,0-5.313,2.146-5.313,5.339c0,1.421,0.533,2.763,1.57,3.702
			c0.938,0.858,2.123,1.18,3.289,1.501c1.063,0.296,2.024,0.564,2.886,1.315c0.784,0.671,1.289,1.744,1.289,2.817
			c0,2.28-1.746,3.917-3.869,3.917c-2.102,0-3.696-1.825-3.747-3.997h-1.998c-0.026,3.46,2.604,5.902,5.794,5.902
			c3.038,0,5.691-2.521,5.691-5.795c0-1.583-0.63-3.139-1.746-4.159C129.028,83.139,127.866,82.896,126.524,82.494z M142.918,73.642
			c-5.416,0-9.872,4.561-9.872,10.329c0,5.688,4.632,10.168,9.872,10.168c5.413,0,9.893-4.56,9.893-10.329
			C152.811,78.122,148.205,73.642,142.918,73.642z M142.941,92.233c-4.251,0-8.021-3.675-8.021-8.263
			c0-4.668,3.568-8.424,8.021-8.424c4.276,0,7.996,3.675,7.996,8.263C150.938,88.504,147.345,92.233,142.941,92.233z
			 M164.247,92.233c-4.251,0-7.947-3.783-7.947-8.424c0-4.348,3.568-8.263,7.82-8.263c2.506,0,5.136,1.26,6.529,3.514h2.074
			c-0.507-1.449-2.051-2.951-3.239-3.756c-1.594-1.128-3.491-1.663-5.391-1.663c-5.312,0-9.667,4.533-9.667,10.168
			c0,5.849,4.33,10.329,9.82,10.329c3.517,0,6.934-2.228,8.553-5.526h-2.076C169.256,90.785,166.777,92.233,164.247,92.233z
			 M194.155,75.76h4.303v18.03h1.872V75.76h4.25v-1.797h-10.425V75.76z M206.211,93.79h1.872V73.963h-1.872V93.79z M219.974,73.642
			c-5.414,0-9.869,4.561-9.869,10.329c0,5.688,4.631,10.168,9.869,10.168c5.416,0,9.895-4.56,9.895-10.329
			C229.868,78.122,225.264,73.642,219.974,73.642z M220,92.233c-4.251,0-8.021-3.675-8.021-8.263c0-4.668,3.567-8.424,8.021-8.424
			c4.276,0,7.996,3.675,7.996,8.263C227.996,88.504,224.402,92.233,220,92.233z M244.579,73.963v16.446l-10.477-16.446h-2.533V93.79
			h1.874V76.352l11.136,17.438h1.871V73.963H244.579z M110.693,30.026h7.302v6.731h0.024l-0.012,0.017h2.363l4.668-6.73l1.263-1.811
			l5.983-8.866h0.055v17.341h1.964v-0.054l4.529-6.556h0.008l1.263-1.811h-0.008l5.983-8.865h0.055v8.865h0.008v1.811h-0.008v6.61
			h1.963V16.855h-2.501l-11.276,16.337l-0.016,1.042V16.8h-2.502l-11.843,17.149V16.782h-2.503l-13.794,19.975h2.362L110.693,30.026
			z M117.939,19.35h0.056v8.866h-6.039L117.939,19.35z M89.735,93.826h2.359l4.671-6.73h7.298v6.73h1.964V73.85h-2.499
			L89.735,93.826z M104.063,76.419v8.865h-6.038l5.987-8.865H104.063z M176.53,93.042V73.981h-1.871v19.826h1.871v-0.011h2.144
			l4.63-6.702h7.302v6.73h1.964V73.85h-2.502L176.53,93.042z M190.605,76.419v8.865h-6.038l5.982-8.865H190.605z M204.76,36.656
			l4.667-6.73h7.299v6.73h1.964V16.681h-2.5l-13.794,19.975H204.76z M216.673,19.249h0.053v8.866h-6.036L216.673,19.249z
			 M109.473,51.545v13.894h3.654l0.048-0.076l3.04-5.088h0.019l2.174-3.594h-0.019l3.032-5.135h0.053v13.894h4.281l3.238-5.165h5.45
			v5.165h3.699V45.463h-3.218l-9.75,14.87v-14.87h-3.218l-8.809,13.434v-1.65h0.026v-3.594h-0.026v-4.596h0.026v-3.594h-3.22
			L96.532,65.438h4.595l3.087-5.165l2.174-3.594l3.032-5.135H109.473z M134.388,51.324l0.056,0.221v5.135h-3.233L134.388,51.324z
			 M73.762,17.778c-2.21,13.057-8.599,24.842-16.403,33.92c-0.247,0.285-0.414-0.963-0.438-1.226
			c-0.969-10.082-1.676-20.608,1.661-30.212c0.063,0.064-6.607-3.954-6.662-4.063c-0.363,1.896-0.704,4.139-1.227,5.814
			c-2.927,9.419-7.722,17.713-13.029,25.328c-3.021-11.762-1.728-17.761-1.85-26.177c0.011,0.081-5.938-3.34-5.739-3.61
			C26.171,35.959,14.593,48.41,7.271,63.245c-4.437,8.988-9.015,22.794-6.604,30.466c0,0,6.059-0.299,6.085-0.111
			C6.619,72.463,19.562,56.688,28.964,40.569c1.294,5.268,1.242,10.557,2.593,15.571c-8.213,11.619-15.128,24.475-14.067,37.685
			c-0.171,0.001,6.237-0.118,6.29,0c0.263-10.237,4.578-20.6,9.997-28.433c1.886,9.677,2.374,9.759,0.185,28.433
			c-0.105-0.087,7.274,0.238,7.22,0c2.41-8.466,6.091-17.087,11.848-23.243c0.029-0.013,2.162,15.104,0.188,23.243
			c-0.164-0.197,6.595,0.046,6.62-0.018c0.61-1.515,0.613-2.351,0.723-4.076c0.59-9.26,0.502-18.516-1.604-27.499
			c4.201-4.863,7.966-10.185,11.476-15.795c2.267,15.679,3.242,32.706-2.776,47.388c-0.256,0.109,7.012,0.194,7.164-0.101
			c5.918-11.598,3.434-31.648,2.426-47.302c-0.507-7.86,0.396-20.476,3.182-24.583C80.43,21.6,73.754,18.027,73.762,17.778z
			 M41.546,74.633c-0.849-9.953-2.161-15.889-2.248-15.906c3.343-5.112,6.664-9.934,10.166-15.204
			c0.097-0.146,0.443-0.048,0.696-0.048c-0.279,5.76,0.823,10.627,1.496,16.342C47.623,63.724,44.354,69.446,41.546,74.633z"/>
	</g>
</g>
</svg>
