<?xml version="1.0" encoding="utf-8"?>
<!-- Generator: Adobe Illustrator 16.0.4, SVG Export Plug-In . SVG Version: 6.00 Build 0)  -->
<!DOCTYPE svg PUBLIC "-//W3C//DTD SVG 1.1//EN" "http://www.w3.org/Graphics/SVG/1.1/DTD/svg11.dtd">
<svg version="1.1" id="aquent_small" xmlns="http://www.w3.org/2000/svg" xmlns:xlink="http://www.w3.org/1999/xlink" x="0px"
	 y="0px" width="100px" height="100px" viewBox="0 0 100 100" enable-background="new 0 0 100 100" xml:space="preserve">
<g>
	<g>
		<path d="M41.998,66.708l1.771,14.401l14.412-1.774l-1.776-14.388L41.998,66.708z M84.979,90.335
			c0.005,0.009-0.788-1.965-0.788-1.965c-0.003-0.002-28.263-70.441-28.263-70.441c0.006,0.014-0.133-0.335-0.133-0.335
			l-0.472-1.199H45.094l-0.606,1.548c0.008-0.023-0.352,0.863-0.352,0.863c-0.005,0.006-29.218,72.291-29.218,72.291l-1.044,2.596
			h13.655c0,0,19.56-49.84,22.573-57.512c1.781,4.547,4.345,11.085,4.345,11.085c15.334,39.069,16.782,42.773,17.014,43.266
			c-0.054-0.101-0.131-0.25-0.131-0.25l0.392,0.972c-0.011-0.023,0.347,0.895,0.347,0.895c0.01,0.031,0.631,1.545,0.631,1.545
			h13.643L84.979,90.335z"/>
	</g>
</g>
</svg>
