<?xml version="1.0" encoding="utf-8"?>
<!-- Generator: Adobe Illustrator 16.0.4, SVG Export Plug-In . SVG Version: 6.00 Build 0)  -->
<!DOCTYPE svg PUBLIC "-//W3C//DTD SVG 1.1//EN" "http://www.w3.org/Graphics/SVG/1.1/DTD/svg11.dtd">
<svg version="1.1" id="aquent_large" xmlns="http://www.w3.org/2000/svg" xmlns:xlink="http://www.w3.org/1999/xlink" x="0px"
	 y="0px" width="636.167px" height="100px" viewBox="0 0 636.167 100" enable-background="new 0 0 636.167 100"
	 xml:space="preserve">
<g>
	<g>
		<path d="M375.96,58.827c3.24,0,30.408,0,30.408,0V46.759c0,0-27.168,0-30.408,0V28.054c3.267,0,32.136,0,32.136,0V15.98H363.42
			v77.574h46.396V81.486c0,0-30.573,0-33.856,0V58.827z M27.586,66.49l1.736,14.463l14.139-1.788l-1.738-14.447L27.586,66.49z
			 M68.981,88.234l-27.73-70.724c0.007,0.015-0.125-0.335-0.125-0.335l-0.465-1.208H30.626l-0.596,1.558
			c0.009-0.025-0.345,0.869-0.345,0.869c-0.004,0-28.666,72.583-28.666,72.583L0,93.579h13.396c0,0,19.189-50.044,22.137-57.745
			c1.752,4.566,4.27,11.133,4.27,11.133C54.84,86.192,56.265,89.917,56.491,90.4c-0.048-0.099-0.128-0.248-0.128-0.248l0.384,0.974
			c-0.011-0.019,0.34,0.9,0.34,0.9c0.014,0.031,0.621,1.552,0.621,1.552h13.379l-1.331-3.364
			C69.758,90.215,68.981,88.234,68.981,88.234z M183.873,90.5c-3.895-0.521-8.863-1.459-13.941-2.464
			c4.334-2.869,7.895-6.574,10.615-11.062c3.927-6.486,5.916-14.274,5.916-23.14c0-22.669-15.842-39.125-37.674-39.125
			c-22.357,0-38.587,17.284-38.587,41.108c0,22.393,15.618,38.433,37.983,39.018c0.567,0,1.177,0.198,1.949,0.446
			c0.12,0.039,1.515,0.459,1.515,0.459c9.383,2.589,19.862,5.14,29.524,7.201c0.005,0,1.267,0.274,1.267,0.274
			c-0.021-0.013,0.466,0.099,0.466,0.099l1.688,0.385l0.628-2.185c-0.003,0.012,0.375-1.249,0.375-1.249
			c0-0.005,1.406-4.768,1.406-4.768l0.482-1.613c0-0.012,0.807-2.756,0.807-2.756l-2.769-0.398
			C185.51,90.729,183.873,90.5,183.873,90.5z M147.979,83.088c-14.284,0-25.057-11.77-25.057-27.377
			c0-14.559,7.998-29.258,25.866-29.258c16.385,0,24.956,13.983,24.956,27.802C173.745,71.505,163.393,83.088,147.979,83.088z
			 M289.317,60.14c0,10.316-3.102,22.607-17.87,22.607c-13.851,0-16.758-12.292-16.758-22.607V15.968h-12.541v44.268
			c0,31.22,20.275,34.585,28.995,34.585c19.229,0,30.709-13.124,30.709-35.098V15.968h-12.535V60.14z M516.092,55.924
			c0,5.115,0.032,9.604,0.123,13.781c-2.301-3.277-4.684-6.669-4.684-6.669l-1.783-2.476c-0.024-0.037-30.854-42.999-30.854-42.999
			c0.016,0.012-0.402-0.575-0.402-0.575c-0.031-0.033-0.748-1.018-0.748-1.018h-10.413v77.586h2.392
			c-0.008,0,1.395,0.012,1.395,0.012c0.014,0,4.904,0.013,4.904,0.013h3.823V52.391c0-4.153-0.042-8.496-0.128-12.851
			c3.078,4.436,6.852,9.874,6.852,9.874l0.734,1.023c0.011,0.019,29.825,41.552,29.825,41.552c0.014,0.012,0.429,0.583,0.434,0.597
			l0.685,0.993h10.35V15.975h-12.504V55.924z M572.207,15.98v12.073c0,0,22.309,0,25.456,0c0,3.572,0,65.525,0,65.525h12.532
			c0,0,0-61.953,0-65.525c3.152,0,25.445,0,25.445,0V15.98H572.207z"/>
	</g>
</g>
</svg>
