<?xml version="1.0" encoding="utf-8"?>
<!-- Generator: Adobe Illustrator 16.0.4, SVG Export Plug-In . SVG Version: 6.00 Build 0)  -->
<!DOCTYPE svg PUBLIC "-//W3C//DTD SVG 1.1//EN" "http://www.w3.org/Graphics/SVG/1.1/DTD/svg11.dtd">
<svg version="1.1" xmlns="http://www.w3.org/2000/svg" xmlns:xlink="http://www.w3.org/1999/xlink" x="0px" y="0px" width="32px"
	 height="32px" viewBox="0 0 32 32" enable-background="new 0 0 32 32" xml:space="preserve">
<g id="guides">
</g>
<g id="icon">
	<g>
		<rect x="7.509" y="14.854" fill-rule="evenodd" clip-rule="evenodd" width="9.916" height="0.708"/>
		<rect x="7.509" y="10.604" fill-rule="evenodd" clip-rule="evenodd" width="9.916" height="0.708"/>
		<rect x="18.842" y="10.604" fill-rule="evenodd" clip-rule="evenodd" width="5.666" height="4.958"/>
		<rect x="7.509" y="12.729" fill-rule="evenodd" clip-rule="evenodd" width="9.916" height="0.708"/>
		<path fill-rule="evenodd" clip-rule="evenodd" d="M30.519,23.352h-1.826c0.031-0.115,0.072-0.228,0.072-0.354l0.708-15.582
			C29.474,6.635,28.839,6,28.058,6H3.975C3.193,6,2.559,6.635,2.559,7.417l0.708,15.582c0,0.126,0.041,0.239,0.071,0.354H1.481
			c-0.783,0-1.417,0.635-1.417,1.417c0,0.783,0.634,1.417,1.417,1.417h29.038c0.783,0,1.417-0.633,1.417-1.417
			C31.936,23.987,31.302,23.352,30.519,23.352z M5.243,7.091H26.79c0.7,0,1.268,0.555,1.268,1.239l-0.635,13.622
			c0,0.684-0.566,1.239-1.267,1.239H5.877c-0.701,0-1.268-0.556-1.268-1.239L3.975,8.331C3.975,7.646,4.543,7.091,5.243,7.091z"/>
		<rect x="7.509" y="19.103" fill-rule="evenodd" clip-rule="evenodd" width="16.998" height="0.708"/>
		<rect x="7.509" y="16.978" fill-rule="evenodd" clip-rule="evenodd" width="16.998" height="0.708"/>
	</g>
</g>
</svg>
