<?xml version="1.0" encoding="utf-8"?>
<!-- Generator: Adobe Illustrator 16.0.4, SVG Export Plug-In . SVG Version: 6.00 Build 0)  -->
<!DOCTYPE svg PUBLIC "-//W3C//DTD SVG 1.1//EN" "http://www.w3.org/Graphics/SVG/1.1/DTD/svg11.dtd">
<svg version="1.1" id="down_arrow" xmlns="http://www.w3.org/2000/svg" xmlns:xlink="http://www.w3.org/1999/xlink" x="0px" y="0px"
	 width="100px" height="100px" viewBox="0 0 100 100" enable-background="new 0 0 100 100" xml:space="preserve">
<path d="M75.923,38.465c0.969,0,1.817,0.349,2.521,1.062c0.71,0.72,1.068,1.575,1.068,2.559c0,1.028-0.364,1.898-1.088,2.612
	l-25.31,24.93c-0.723,0.71-1.597,1.072-2.641,1.072c-1.106,0-1.936-0.362-2.502-1.072l-25.397-24.93
	c-0.724-0.714-1.088-1.584-1.088-2.612c0-0.958,0.358-1.801,1.062-2.53c0.71-0.729,1.546-1.091,2.527-1.091H75.923L75.923,38.465z"
	/>
</svg>
