<?xml version="1.0" encoding="utf-8"?>
<!-- Generator: Adobe Illustrator 16.0.4, SVG Export Plug-In . SVG Version: 6.00 Build 0)  -->
<!DOCTYPE svg PUBLIC "-//W3C//DTD SVG 1.1//EN" "http://www.w3.org/Graphics/SVG/1.1/DTD/svg11.dtd">
<svg version="1.1" id="email_icon" xmlns="http://www.w3.org/2000/svg" xmlns:xlink="http://www.w3.org/1999/xlink" x="0px" y="0px"
	 width="100px" height="100px" viewBox="0 0 100 100" enable-background="new 0 0 100 100" xml:space="preserve">
<g>
	<g>
		<path d="M87.545,65.324l-19.82-18.62L50.078,59.544L32.389,46.757L12.615,65.43l0.018,5.675c0.005,1.631,1.494,2.95,3.326,2.94
			l68.285-0.103c1.832,0.005,3.315-1.319,3.315-2.95L87.545,65.324z M12.57,32.433l0.039,26.006L28.184,43.72L12.57,32.433z
			 M87.541,58.329l-0.044-26.001L71.912,43.662L87.541,58.329z M87.487,26.945v-1.272c-0.005-1.631-1.494-2.95-3.326-2.945
			l-68.285,0.093c-1.832,0.005-3.32,1.329-3.315,2.959v1.271l37.51,27.116L87.487,26.945z M47.989,45.769
			c-1.317,0-2.564-0.164-3.746-0.496c-1.192-0.337-2.222-0.85-3.112-1.548c-0.893-0.683-1.596-1.545-2.113-2.598
			c-0.513-1.045-0.773-2.301-0.773-3.745c0-1.354,0.269-2.717,0.83-4.109c0.547-1.384,1.407-2.629,2.544-3.764
			c1.135-1.12,2.604-2.028,4.377-2.742c1.769-0.708,3.868-1.067,6.301-1.07c1.299,0,2.535,0.149,3.688,0.459
			c1.148,0.312,2.163,0.789,3.029,1.426c0.863,0.64,1.552,1.437,2.055,2.402c0.508,0.973,0.762,2.106,0.765,3.406
			c0.002,0.952-0.169,1.88-0.515,2.808c-0.353,0.918-0.84,1.739-1.47,2.477c-0.645,0.732-1.402,1.324-2.301,1.783
			c-0.904,0.463-1.903,0.696-3,0.717c-1.245-0.005-2.198-0.288-2.847-0.864c-0.513,0.229-1.05,0.429-1.617,0.61
			c-0.557,0.171-1.275,0.259-2.13,0.264c-0.549,0-1.062-0.074-1.538-0.22c-0.476-0.142-0.903-0.366-1.26-0.688
			c-0.356-0.298-0.645-0.698-0.859-1.173c-0.22-0.469-0.327-1.026-0.332-1.685c0-1.03,0.2-1.978,0.584-2.837
			c0.373-0.862,0.906-1.606,1.574-2.236c0.659-0.625,1.431-1.114,2.315-1.461c0.884-0.351,1.823-0.533,2.843-0.533
			c0.771,0,1.519,0.05,2.272,0.147c0.737,0.103,1.435,0.255,2.092,0.469l-1.638,7.736c0.173,0.122,0.464,0.18,0.859,0.18
			c0.63,0,1.187-0.17,1.691-0.502c0.492-0.337,0.908-0.777,1.245-1.304c0.322-0.538,0.581-1.124,0.747-1.773
			c0.171-0.635,0.249-1.28,0.249-1.91c0-1.738-0.601-3.08-1.798-4c-1.201-0.938-2.89-1.388-5.054-1.388
			c-1.685,0-3.181,0.256-4.479,0.767c-1.309,0.513-2.418,1.197-3.317,2.056c-0.893,0.86-1.578,1.861-2.05,2.97
			c-0.464,1.128-0.7,2.281-0.7,3.482c0,1.1,0.183,2.038,0.558,2.81c0.371,0.77,0.87,1.411,1.505,1.904
			c0.635,0.488,1.38,0.85,2.222,1.074c0.846,0.235,1.758,0.347,2.71,0.347c0.89-0.005,1.72-0.059,2.467-0.151
			c0.755-0.098,1.436-0.254,2.057-0.469c0.156,0.332,0.303,0.679,0.439,1.03c0.127,0.362,0.259,0.708,0.356,1.062
			c-0.302,0.139-0.678,0.261-1.104,0.378c-0.43,0.112-0.889,0.208-1.387,0.278c-0.493,0.069-1.021,0.117-1.583,0.162
			C49.088,45.747,48.54,45.769,47.989,45.769z M50.994,32.755c-0.572,0-1.081,0.113-1.52,0.343
			c-0.455,0.233-0.824,0.542-1.137,0.915c-0.309,0.383-0.553,0.808-0.712,1.318c-0.167,0.511-0.25,1.025-0.255,1.571
			c0.005,0.693,0.18,1.192,0.518,1.505c0.342,0.307,0.787,0.458,1.343,0.453c0.342,0.005,0.646-0.019,0.899-0.063
			c0.243-0.048,0.527-0.112,0.825-0.195l1.109-5.738c-0.19-0.044-0.371-0.074-0.533-0.093C51.36,32.76,51.183,32.75,50.994,32.755z"
			/>
	</g>
</g>
</svg>
