<?xml version="1.0" encoding="utf-8"?>
<!-- Generator: Adobe Illustrator 16.0.4, SVG Export Plug-In . SVG Version: 6.00 Build 0)  -->
<!DOCTYPE svg PUBLIC "-//W3C//DTD SVG 1.1//EN" "http://www.w3.org/Graphics/SVG/1.1/DTD/svg11.dtd">
<svg version="1.1" id="Layer_1" xmlns="http://www.w3.org/2000/svg" xmlns:xlink="http://www.w3.org/1999/xlink" x="0px" y="0px"
	 width="32px" height="32px" viewBox="0 0 32 32" enable-background="new 0 0 32 32" xml:space="preserve">
<g id="guides">
</g>
<g id="icon">
	<g id="Layer_2_1_">
		<g id="Layer_2">
			<g>
				<g>
					<path fill="#010101" d="M26.264,3H5.737C4.227,3,3,4.227,3,5.737v20.526C3,27.772,4.227,29,5.737,29h20.526
						C27.775,29,29,27.772,29,26.264V5.737C29,4.227,27.775,3,26.264,3z M28.068,10.113H24.54c-0.414,0-0.863,0.6-0.863,1.353v2.253
						h4.392v4.394h-4.392v10.67H19.28V18.115h-3.531v-4.395h3.531v-2.178c0-3.194,2.368-5.748,5.26-5.748h3.528V10.113
						L28.068,10.113z"/>
				</g>
			</g>
		</g>
	</g>
</g>
</svg>
