<?xml version="1.0" encoding="utf-8"?>
<!-- Generator: Adobe Illustrator 16.0.4, SVG Export Plug-In . SVG Version: 6.00 Build 0)  -->
<!DOCTYPE svg PUBLIC "-//W3C//DTD SVG 1.1//EN" "http://www.w3.org/Graphics/SVG/1.1/DTD/svg11.dtd">
<svg version="1.1" id="firebrand" xmlns="http://www.w3.org/2000/svg" xmlns:xlink="http://www.w3.org/1999/xlink" x="0px" y="0px"
	 width="485px" height="100px" viewBox="0 0 485 100" enable-background="new 0 0 485 100" xml:space="preserve">
<g>
	<g>
		<path d="M0,93.849h7.517l0.005-34.846h22.815l0.002-7.691L7.521,51.31L7.53,24.487l30.834,0.005l0.002-7.558L0.014,16.927
			L0,93.849z M45.938,93.856l7.745,0.003L53.7,16.937h-7.745L45.938,93.856z M112.341,41.496c0-10.613-4.752-24.548-28.723-24.554
			H63.034l-0.013,76.917l7.434,0.002l0.011-69.367l11.329,0.002c20.259,0.005,22.538,9.44,22.535,16.421
			c-0.003,12.894-8.528,15.713-23.888,15.71l23.006,37.232l9.127,0.005L93.653,63.908C103.235,62.16,112.339,55.309,112.341,41.496z
			 M120.331,93.867l40.286,0.008v-7.414l-32.541-0.002l0.003-27.438l24.508,0.008l0.003-7.692l-24.511-0.002l0.008-26.827
			l32.544,0.005v-7.555l-40.286-0.008L120.331,93.867z M202.083,52.438c4.696-3.021,7.836-6.903,7.836-15.16
			c0.002-12.211-9.016-20.314-23.502-20.317l-16.451-0.002l-0.014,76.919h17.091c21.049,0.008,26.915-10.912,26.915-23.485
			C213.96,61.615,209.522,55.327,202.083,52.438z M177.293,24.318c1.057,0,1.829,0,2.271-0.137h2.977
			c14.566,0.003,19.349,4.288,19.548,12.423c0.224,10.879-7.045,13.578-20.437,13.575h-4.364L177.293,24.318z M177.284,86.467
			l0.003-29.153c18.153-0.547,29.063,0.783,29.063,14.593C206.346,85.132,199.7,86.473,177.284,86.467z M272.517,41.523
			c0.002-10.611-4.798-24.549-28.718-24.551l-20.581-0.003l-0.011,76.92h7.352l0.013-69.364l11.345,0.003
			c20.246,0.002,22.536,9.44,22.533,16.423c0,12.891-8.482,15.707-23.851,15.707l22.99,37.236h9.156l-18.948-29.957
			C263.342,62.189,272.514,55.34,272.517,41.523z M444.934,17.01l-23.195-0.005l-0.011,76.919l20.283,0.003
			c26.888,0,42.024-14.935,42.032-37.983C484.048,39.747,475.885,17.012,444.934,17.01z M447.313,86.757l-18.064-0.008l0.008-62.386
			l16.305,0.002c24.535,0.002,30.164,17.823,30.161,31.172C475.723,75.089,463.558,86.76,447.313,86.757z M403.375,82.459
			l-40.71-65.466l-10-0.003l-0.014,76.919h7.53l0.013-66.546l41.762,66.556h9.148l0.01-76.918h-7.729L403.375,82.459z
			 M308.105,16.982L278.14,93.896h7.841l9.356-24.151l27.421,0.008l-2.293-6.935l-22.602-0.008l14.489-38.667l26.563,69.763
			l8.049,0.002l-29.687-76.924L308.105,16.982z"/>
	</g>
</g>
</svg>
