<?xml version="1.0" encoding="utf-8"?>
<!-- Generator: Adobe Illustrator 16.0.4, SVG Export Plug-In . SVG Version: 6.00 Build 0)  -->
<!DOCTYPE svg PUBLIC "-//W3C//DTD SVG 1.1//EN" "http://www.w3.org/Graphics/SVG/1.1/DTD/svg11.dtd">
<svg version="1.1" id="firebrand_small" xmlns="http://www.w3.org/2000/svg" xmlns:xlink="http://www.w3.org/1999/xlink" x="0px"
	 y="0px" width="100px" height="100px" viewBox="0 0 100 100" enable-background="new 0 0 100 100" xml:space="preserve">
<g>
	<path d="M55.122,45.426c-0.098-0.008-0.191-0.011-0.287-0.019l-40.96,46.581c1.03,0.897,2.375,1.446,3.851,1.446h64.549
		c3.243,0,5.868-2.627,5.868-5.868V29.48C85.183,38.812,76.702,47.231,55.122,45.426z M61.755,63.755H51.366v9.188h10.319v2.614
		H51.366v11.767h-2.897v-26.15h13.286V63.755z M77.796,86.159c-1.555,0.953-3.04,1.166-5.617,1.166h-7.207v-26.15h6.89
		c2.367,0,3.994,0.425,5.16,1.237c2.119,1.201,2.825,3.392,2.825,5.442c0,3.075-1.73,4.628-3.499,5.548
		c4.699,1.449,5.017,5.441,5.017,6.643C81.329,82.871,80.024,84.993,77.796,86.159z"/>
	<path d="M74.899,71.953c1.661-0.917,2.122-2.296,2.122-3.886c0-1.909-1.025-3.216-2.122-3.711
		c-0.671-0.353-1.555-0.564-3.254-0.601h-3.777v8.728h3.959C73.028,72.483,74.088,72.342,74.899,71.953z"/>
	<path d="M75.749,75.488c-1.169-0.495-2.053-0.531-3.677-0.531h-4.204v9.789h4.733c1.062,0,2.226-0.105,3.182-0.495
		c1.556-0.671,2.722-2.013,2.756-4.347C78.539,77.784,77.407,76.23,75.749,75.488z"/>
	<path d="M17.726,17.147c-3.24,0-5.868,2.627-5.868,5.868v57.528c3.783-15.871,14.212-37.387,42.978-35.137l24.85-28.259H17.726z"/>
</g>
</svg>
