<?xml version="1.0" encoding="utf-8"?>
<!-- Generator: Adobe Illustrator 16.0.4, SVG Export Plug-In . SVG Version: 6.00 Build 0)  -->
<!DOCTYPE svg PUBLIC "-//W3C//DTD SVG 1.1//EN" "http://www.w3.org/Graphics/SVG/1.1/DTD/svg11.dtd">
<svg version="1.1" id="flickr" xmlns="http://www.w3.org/2000/svg" xmlns:xlink="http://www.w3.org/1999/xlink" x="0px" y="0px"
	 width="100px" height="100px" viewBox="0 0 100 100" style="enable-background:new 0 0 100 100;" xml:space="preserve">
<style type="text/css">
<![CDATA[
	.st0{fill-rule:evenodd;clip-rule:evenodd;}
]]>
</style>
<path class="st0" d="M83.476,11.7H16.6c-4.155,0-7.524,3.369-7.524,7.525v66.876c0,4.156,3.369,7.525,7.524,7.525h66.876
	c4.156,0,7.524-3.369,7.524-7.525V19.225C91,15.069,87.632,11.7,83.476,11.7z M32.036,67.673c-8.285,0-15-6.715-15-15
	c0-8.285,6.715-15,15-15c8.284,0,15,6.715,15,15C47.036,60.958,40.32,67.673,32.036,67.673z M68.038,67.671c-8.285,0-15-6.715-15-15
	s6.715-15,15-15s15,6.715,15,15S76.323,67.671,68.038,67.671z"/>
</svg>
