<?xml version="1.0" encoding="utf-8"?>
<!-- Generator: Adobe Illustrator 16.0.4, SVG Export Plug-In . SVG Version: 6.00 Build 0)  -->
<!DOCTYPE svg PUBLIC "-//W3C//DTD SVG 1.1//EN" "http://www.w3.org/Graphics/SVG/1.1/DTD/svg11.dtd">
<svg version="1.1" xmlns="http://www.w3.org/2000/svg" xmlns:xlink="http://www.w3.org/1999/xlink" x="0px" y="0px" width="100px"
	 height="100px" viewBox="0 0 100 100" style="enable-background:new 0 0 100 100;" xml:space="preserve">
<g id="guide">
</g>
<g id="gplus3">
	<g>
		<polygon points="79.906,12.109 74.362,12.109 74.362,23.197 63.274,23.197 63.274,28.741 74.362,28.741 74.362,39.828 
			79.906,39.828 79.906,28.741 90.994,28.741 90.994,23.197 79.906,23.197 		"/>
		<path d="M51.633,57.662c-2.229-1.672-7.076-5.098-7.076-7.398c0-2.696,0.77-4.023,4.826-7.192
			c4.157-3.25,7.102-7.532,7.102-12.845c0-5.789-2.367-11.04-6.818-13.59h6.309L61.346,11c0,0-17.749,0-24.034,0
			c-12.196,0-22.36,8.993-22.36,18.885c0,10.109,6.68,18.166,18.146,18.166c0.799,0,1.572-0.042,2.332-0.095
			c-0.745,1.427-1.277,3.017-1.277,4.684c0,2.809,1.546,4.411,3.456,6.269c-1.443,0-2.837,0.039-4.359,0.039
			c-13.962,0-23.736,9.609-23.736,18.832c0,9.081,11.782,14.761,25.745,14.761c15.918,0,25.707-9.033,25.707-18.115
			C60.965,67.145,59.394,63.483,51.633,57.662z M23.99,29.735c-1.119-8.508,3.225-15.019,9.702-14.826
			c6.476,0.194,12.017,7.174,13.135,15.68c1.117,8.507-2.609,13.982-9.085,13.79C31.264,44.184,25.108,38.24,23.99,29.735z
			 M35.205,88.526c-9.65,0-16.621-6.109-16.621-13.448c0-7.192,8.179-13.396,17.83-13.29c2.251,0.023,4.35,0.385,6.255,1.002
			c5.239,3.643,9.466,5.918,10.527,10.07c0.198,0.84,0.308,1.706,0.308,2.592C53.504,82.792,48.773,88.526,35.205,88.526z"/>
	</g>
</g>
</svg>
