<?xml version="1.0" encoding="utf-8"?>
<!-- Generator: Adobe Illustrator 16.0.4, SVG Export Plug-In . SVG Version: 6.00 Build 0)  -->
<!DOCTYPE svg PUBLIC "-//W3C//DTD SVG 1.1//EN" "http://www.w3.org/Graphics/SVG/1.1/DTD/svg11.dtd">
<svg version="1.1" id="g_x2B_" xmlns="http://www.w3.org/2000/svg" xmlns:xlink="http://www.w3.org/1999/xlink" x="0px" y="0px"
	 width="111.333px" height="100px" viewBox="0 0 111.333 100" enable-background="new 0 0 111.333 100" xml:space="preserve">
<g>
	<g>
		<path d="M90.581,19.97V-0.033h-8.766V19.97H61.363v8.392h20.451v20.179h8.766V28.361h20.52V19.97H90.581z M46.462,68.622
			l-5.815-4.421c-1.766-1.427-4.188-3.327-4.188-6.803c0-3.488,2.422-5.707,4.515-7.763c6.776-5.214,13.083-10.763,13.083-22.476
			c0-10.688-5.902-16.693-9.86-20.046c1.329,0,9.882,0,9.882,0l9.048-7.146H29.046C20.59,0.125,10.51,1.362,1.315,8.805
			c-0.435,0.364-0.9,0.781-1.306,1.161v38.575c4.419,3.59,10.431,6.32,17.749,6.32c1.613,0,3.381-0.164,5.161-0.321
			c-0.802,1.905-1.611,3.49-1.611,6.179c0,4.905,2.577,7.904,4.832,10.759c-6.161,0.406-18.824-0.62-26.13,5.092v9.11
			c3.331-4.422,8.646-6.401,10.974-7.235c6.774-2.214,15.484-2.534,16.943-2.534c1.599,0,2.412,0,3.692,0.163
			c12.262,8.55,21.051,12.95,21.141,21.038c0.019,1.568-0.439,2.051-0.676,2.855h9.437c0.98-2.22,1.304-4.851,1.304-7.776
			C62.825,81.263,53.556,74.481,46.462,68.622z M25.882,48.541c-13.869,0-19.558-15.687-19.558-26.282
			c0-4.123,0.423-8.391,3.161-11.717c2.583-3.163,7.097-5.219,11.294-5.219c13.382,0,20.133,17.724,20.133,29.122
			c0,2.279-1.186,6.744-4.216,10.133C34.052,47.534,29.916,48.541,25.882,48.541z"/>
	</g>
</g>
</svg>
