<?xml version="1.0" encoding="utf-8"?>
<!-- Generator: Adobe Illustrator 16.0.4, SVG Export Plug-In . SVG Version: 6.00 Build 0)  -->
<!DOCTYPE svg PUBLIC "-//W3C//DTD SVG 1.1//EN" "http://www.w3.org/Graphics/SVG/1.1/DTD/svg11.dtd">
<svg version="1.1" xmlns="http://www.w3.org/2000/svg" xmlns:xlink="http://www.w3.org/1999/xlink" x="0px" y="0px" width="100px"
	 height="100px" viewBox="0 0 100 100" style="enable-background:new 0 0 100 100;" xml:space="preserve">
<g id="guide">
</g>
<g id="gplus2">
	<g>
		<path d="M35.01,77.458c-2.215-0.717-4.652-1.138-7.267-1.165c-8.172-0.089-15.432,3.712-18.771,9.014
			c1.053,4.575,5.149,7.985,10.043,7.985h28.55c0.023-0.37,0.033-0.745,0.033-1.122c0-1.029-0.126-2.036-0.356-3.012
			C46.009,84.334,41.098,81.689,35.01,77.458z"/>
		<path d="M80.853,10.841H19.015c-5.691,0-10.306,4.614-10.306,10.307v4.469c4.795-4.988,12.057-8.334,20.076-8.334
			c7.303,0,27.924,0,27.924,0l-6.239,6.549h-7.33c5.172,2.964,7.923,9.065,7.923,15.791c0,6.173-3.422,11.148-8.252,14.925
			c-4.713,3.681-5.607,5.224-5.607,8.356c0,2.672,5.632,6.652,8.221,8.595c9.019,6.764,10.844,11.018,10.844,19.478
			c0,0.773-0.061,1.546-0.182,2.315h24.767c5.691,0,10.306-4.615,10.306-10.307V37.896H78.276v12.882h-6.442V37.896H58.952v-6.442
			h12.882V18.571h6.442v12.883h12.882V21.148C91.158,15.455,86.544,10.841,80.853,10.841z"/>
		<path d="M13.307,39.051c1.3,9.882,8.452,16.787,15.979,17.014c7.522,0.224,11.854-6.137,10.556-16.021
			c-1.299-9.884-7.738-17.993-15.261-18.218C17.055,21.601,12.007,29.165,13.307,39.051z"/>
		<path d="M8.709,76.811c4.282-2.363,9.502-3.817,15.356-3.817c1.769,0,3.387-0.045,5.065-0.045
			c-2.22-2.159-4.016-4.021-4.016-7.284c0-1.938,0.617-3.785,1.483-5.443c-0.884,0.063-1.782,0.111-2.709,0.111
			c-6.444,0-11.588-2.19-15.181-5.781V76.811z"/>
	</g>
</g>
</svg>
