<?xml version="1.0" encoding="utf-8"?>
<!-- Generator: Adobe Illustrator 16.0.4, SVG Export Plug-In . SVG Version: 6.00 Build 0)  -->
<!DOCTYPE svg PUBLIC "-//W3C//DTD SVG 1.1//EN" "http://www.w3.org/Graphics/SVG/1.1/DTD/svg11.dtd">
<svg version="1.1" id="gym" xmlns="http://www.w3.org/2000/svg" xmlns:xlink="http://www.w3.org/1999/xlink" x="0px" y="0px"
	 width="100px" height="100px" viewBox="0 0 100 100" enable-background="new 0 0 100 100" xml:space="preserve">
<path fill-rule="evenodd" clip-rule="evenodd" d="M50,14.729c-22.996,0-41.634,18.642-41.634,41.636C8.365,79.358,27.003,98,50,98
	c22.997,0,41.635-18.642,41.635-41.635C91.635,33.371,72.997,14.729,50,14.729z M64.189,37.449
	c3.172,3.422,3.373,7.857,0.526,11.576c-1.404,1.833-3.669,3.517-5.771,4.29c-2.043,0.753-3.407,1.187-4.419,1.457
	c-1.014,0.27-1.152-0.082-0.3-0.695c1.943-1.396,3.828-2.952,5.268-4.759c3.313-4.168,0.989-8.355-0.881-11.717
	c-1.408-2.54-2.253-6.493-1.135-9.132c0.193-0.461,0.442-0.871,0.738-1.229c0.518-0.61,0.963-0.482,0.853,0.089
	c-0.084,0.43-0.14,0.805-0.172,1.038c-0.167,1.248-0.032,2.369,0.418,3.428c0.63,1.582,2.518,3.387,3.396,4.205
	C63.237,36.493,63.736,36.958,64.189,37.449z M39.001,34.712c-1.843-1.901-2.179-5.816-0.776-9.109
	c0.999-2.334,3.66-6.245,10.344-6.245c0.248,0,0.497,0.004,0.751,0.014c1.025,0.047,2.023,0.07,2.964,0.07
	c4.373,0,7.186-0.488,8.98-1.062c1.001-0.322,1.532,0.116,0.862,0.925c-0.853,1.029-2.397,2.105-5.185,2.825
	c-2.103,0.545-5.758,2.006-6.547,5.677c-0.577,2.675,1.014,4.63,2.417,6.355c0.367,0.458,0.721,0.89,1.04,1.336
	c2.173,3.034,2.963,6.433,2.219,9.575c-1.088,4.61-4.336,7.638-7.508,9.304c-0.929,0.489-1.1,0.207-0.45-0.617
	c1.69-2.144,2.21-4.239,2.44-5.833l0.033-0.26c0.186-1.23,0.435-2.918-0.391-3.873c-0.384-0.437-0.92-0.66-1.603-0.66
	c-0.865,0-1.981,0.362-3.415,1.112c-4.105,2.144-4.991,7.446-5.582,10.955c-0.059,0.371-0.127,0.756-0.196,1.121
	c-0.111,0.617-0.852,0.498-1.346-0.425c-0.721-1.336-1.185-3.067-1.297-4.96c-0.176-3.037,0.585-5.801,1.942-7.048
	c1.622-1.481,3.021-2.764,3.072-4.393C41.809,38.178,40.979,36.749,39.001,34.712z M29.627,51.269
	c-0.084-3.595,2.244-6.038,4.474-7.339c0.902-0.53,1.286-0.069,0.875,0.893c-1.518,3.564-1.287,6.739-0.715,8.962
	c0.222,0.868,0.512,1.645,0.805,2.315c0.422,0.958,0.014,1.647-1.005,1.393C31.097,56.755,29.706,54.754,29.627,51.269z
	 M59.754,93.173c0,0-3.805,1.263-8.876,1.263c-5.076,0-8.881-1.263-8.881-1.263l-0.529-11.581c2.515-0.388,5.765-0.73,9.411-0.73
	c3.519,0,6.794,0.322,9.409,0.698L59.754,93.173z M61.157,77.851c-2.804-0.416-6.375-0.779-10.278-0.779
	c-4.01,0-7.556,0.387-10.266,0.816l-8.76-16.286c0,0,6.343-1.896,19.026-1.896c12.685,0,19.029,1.896,19.029,1.896L61.157,77.851z
	 M70.232,55.108c-1.887,1.829-4.353,2.759-7.332,2.759c-0.551,0-1.084-0.032-1.59-0.086c-0.869-0.095-0.738-0.448,0.237-0.841
	c1.606-0.648,3.377-1.699,4.891-3.409c2.116-2.387,3.294-5.561,3.515-9.463c0.059-1.045,0.406-1.129,0.791-0.158
	C72.135,47.407,73.196,52.224,70.232,55.108z"/>
</svg>
