<?xml version="1.0" encoding="utf-8"?>
<!-- Generator: Adobe Illustrator 16.0.4, SVG Export Plug-In . SVG Version: 6.00 Build 0)  -->
<!DOCTYPE svg PUBLIC "-//W3C//DTD SVG 1.1//EN" "http://www.w3.org/Graphics/SVG/1.1/DTD/svg11.dtd">
<svg version="1.1" id="left_arrow" xmlns="http://www.w3.org/2000/svg" xmlns:xlink="http://www.w3.org/1999/xlink" x="0px" y="0px"
	 width="100px" height="100px" viewBox="0 0 100 100" enable-background="new 0 0 100 100" xml:space="preserve">
<path d="M64.283,24.396v50.846c0,0.981-0.361,1.817-1.091,2.527c-0.729,0.704-1.571,1.062-2.53,1.062
	c-1.027,0-1.898-0.364-2.612-1.088L33.12,52.346c-0.71-0.566-1.071-1.396-1.071-2.502c0-1.044,0.361-1.918,1.071-2.641l24.93-25.31
	c0.714-0.724,1.585-1.088,2.612-1.088c0.984,0,1.839,0.358,2.559,1.068C63.935,22.579,64.283,23.427,64.283,24.396L64.283,24.396z"
	/>
</svg>
