<?xml version="1.0" encoding="utf-8"?>
<!-- Generator: Adobe Illustrator 16.0.4, SVG Export Plug-In . SVG Version: 6.00 Build 0)  -->
<!DOCTYPE svg PUBLIC "-//W3C//DTD SVG 1.1//EN" "http://www.w3.org/Graphics/SVG/1.1/DTD/svg11.dtd">
<svg version="1.1" id="Layer_1" xmlns="http://www.w3.org/2000/svg" xmlns:xlink="http://www.w3.org/1999/xlink" x="0px" y="0px"
	 width="32px" height="32px" viewBox="0 0 32 32" enable-background="new 0 0 32 32" xml:space="preserve">
<g id="guides">
</g>
<g id="icon">
	<g>
		<g>
			<path fill="#010101" d="M26.264,3H5.737C4.227,3,3,4.227,3,5.737v20.526C3,27.772,4.227,29,5.737,29h20.526
				C27.775,29,29,27.772,29,26.264V5.737C29,4.227,27.775,3,26.264,3z M11.742,27.785H7.535V13.249h4.208V27.785z M9.638,11.708
				c-1.428,0-2.555-1.165-2.555-2.591s1.126-2.628,2.555-2.628c1.428,0,2.591,1.201,2.591,2.628S11.063,11.708,9.638,11.708z
				 M26.2,27.785h-4.13V18.92c0-0.413-0.375-1.088-0.713-1.202c-1.655-0.938-3.382,0.752-3.382,0.752v9.315h-4.208V13.249h4.208
				v0.677c1.615-0.826,3.833-0.677,5.41,0.15c1.689,0.939,2.814,2.966,2.814,4.844V27.785z"/>
		</g>
	</g>
</g>
</svg>
