<?xml version="1.0" encoding="utf-8"?>
<!-- Generator: Adobe Illustrator 16.0.4, SVG Export Plug-In . SVG Version: 6.00 Build 0)  -->
<!DOCTYPE svg PUBLIC "-//W3C//DTD SVG 1.1//EN" "http://www.w3.org/Graphics/SVG/1.1/DTD/svg11.dtd">
<svg version="1.1" id="linkedIn" xmlns="http://www.w3.org/2000/svg" xmlns:xlink="http://www.w3.org/1999/xlink" x="0px" y="0px"
	 width="100px" height="100px" viewBox="0 0 100 100" enable-background="new 0 0 100 100" xml:space="preserve">
<g>
	<g>
		<path fill-rule="evenodd" clip-rule="evenodd" d="M22.836,21.658c-5.259,0-8.697,3.617-8.697,8.377
			c0,4.647,3.333,8.372,8.496,8.372h0.097c5.362,0,8.703-3.725,8.703-8.372C31.329,25.275,28.094,21.658,22.836,21.658z
			 M15.043,93.506H30.42V45.023H15.043V93.506z M68.162,43.891c-8.166,0-11.818,4.708-13.857,8.011v0.156h-0.098
			c0.031-0.051,0.065-0.104,0.098-0.156v-6.878H38.928c0.205,4.55,0,48.482,0,48.482h15.377v-27.08c0-1.44,0.098-2.896,0.507-3.923
			c1.108-2.897,3.645-5.901,7.892-5.901c5.563,0,7.786,4.449,7.786,10.969v25.936h15.372V65.708
			C85.861,50.818,78.276,43.891,68.162,43.891z"/>
	</g>
</g>
</svg>
