<?xml version="1.0" encoding="utf-8"?>
<!-- Generator: Adobe Illustrator 16.0.4, SVG Export Plug-In . SVG Version: 6.00 Build 0)  -->
<!DOCTYPE svg PUBLIC "-//W3C//DTD SVG 1.1//EN" "http://www.w3.org/Graphics/SVG/1.1/DTD/svg11.dtd">
<svg version="1.1" id="lock_icon" xmlns="http://www.w3.org/2000/svg" xmlns:xlink="http://www.w3.org/1999/xlink" x="0px" y="0px"
	 width="100px" height="100px" viewBox="0 0 100 100" enable-background="new 0 0 100 100" xml:space="preserve">
<path d="M80.153,46.606c1.264,0.443,2.284,1.227,3.037,2.341c0.776,1.113,1.152,2.399,1.152,3.842v34.879
	c0,1.748-0.628,3.271-1.886,4.566c-1.239,1.296-2.722,1.954-4.417,1.954H22.622c-1.709,0-3.195-0.658-4.454-1.954
	c-1.276-1.295-1.911-2.818-1.911-4.566V52.789c0-1.442,0.389-2.729,1.165-3.842c0.791-1.114,1.81-1.897,3.083-2.341v-9.135
	c0-4.195,0.773-8.15,2.325-11.866c1.566-3.715,3.692-6.967,6.387-9.75c2.702-2.785,5.874-4.966,9.509-6.568
	c3.636-1.604,7.515-2.399,11.603-2.399S58.277,7.684,61.9,9.288c3.621,1.602,6.794,3.783,9.509,6.568
	c2.717,2.783,4.856,6.045,6.417,9.785c1.552,3.727,2.327,7.671,2.327,11.831V46.606L80.153,46.606z M67.33,37.472
	c0-2.445-0.444-4.74-1.328-6.856c-0.89-2.111-2.119-3.953-3.671-5.509c-1.551-1.556-3.369-2.796-5.453-3.705
	c-2.082-0.911-4.266-1.364-6.55-1.364c-2.394,0-4.599,0.453-6.625,1.364c-2.03,0.909-3.834,2.149-5.413,3.705
	c-1.57,1.556-2.802,3.408-3.687,5.546c-0.89,2.125-1.331,4.408-1.331,6.819v8.693H67.33V37.472z M53.977,69.166
	c1.041-0.661,1.905-1.569,2.571-2.694c0.662-1.137,1.008-2.353,1.008-3.647c0-2.046-0.71-3.808-2.12-5.298
	c-1.415-1.489-3.123-2.225-5.107-2.225c-1.995,0-3.687,0.736-5.107,2.225c-1.421,1.49-2.119,3.251-2.119,5.298
	c0,1.294,0.323,2.511,0.977,3.647c0.653,1.125,1.495,1.987,2.563,2.589l-3.54,15.991h14.454L53.977,69.166z"/>
</svg>
