<?xml version="1.0" encoding="utf-8"?>
<!-- Generator: Adobe Illustrator 16.0.4, SVG Export Plug-In . SVG Version: 6.00 Build 0)  -->
<!DOCTYPE svg PUBLIC "-//W3C//DTD SVG 1.1//EN" "http://www.w3.org/Graphics/SVG/1.1/DTD/svg11.dtd">
<svg version="1.1" id="magnifying_glass" xmlns="http://www.w3.org/2000/svg" xmlns:xlink="http://www.w3.org/1999/xlink" x="0px"
	 y="0px" width="100px" height="100px" viewBox="0 0 100 100" enable-background="new 0 0 100 100" xml:space="preserve">
<path d="M88.709,75.346l-20.63-20.631c2.776-4.578,4.406-9.944,4.406-15.694c0-16.769-13.576-30.349-30.345-30.354
	c-16.762,0.005-30.35,13.585-30.35,30.353c0,16.753,13.588,30.332,30.357,30.332c5.752,0,11.112-1.626,15.69-4.402l20.641,20.635
	L88.709,75.346z M23.37,39.019c0.02-10.369,8.405-18.755,18.774-18.772c10.361,0.022,18.755,8.403,18.77,18.772
	c-0.019,10.357-8.408,18.75-18.77,18.764C31.775,57.769,23.385,49.376,23.37,39.019z"/>
</svg>
