<?xml version="1.0" encoding="utf-8"?>
<!-- Generator: Adobe Illustrator 16.0.4, SVG Export Plug-In . SVG Version: 6.00 Build 0)  -->
<!DOCTYPE svg PUBLIC "-//W3C//DTD SVG 1.1//EN" "http://www.w3.org/Graphics/SVG/1.1/DTD/svg11.dtd">
<svg version="1.1" id="meetup2" xmlns="http://www.w3.org/2000/svg" xmlns:xlink="http://www.w3.org/1999/xlink" x="0px" y="0px"
	 width="100px" height="100px" viewBox="0 0 100 100" style="enable-background:new 0 0 100 100;" xml:space="preserve">
<style type="text/css">
<![CDATA[
	.st0{fill-rule:evenodd;clip-rule:evenodd;}
]]>
</style>
<path class="st0" d="M78.632,37.101H21.086c-1.282,0-2.329,1.047-2.329,2.328v36.812c0,1.282,1.047,2.33,2.329,2.33h57.546
	c1.281,0,2.329-1.048,2.329-2.33V39.429C80.961,38.148,79.913,37.101,78.632,37.101z M65.854,72.808
	c-0.464,0-1.053,0.188-1.702,0.39c-0.869,0.269-1.81,0.562-2.659,0.679c-2.421-6.187-4.254-12.215-5.602-18.422
	c-1.234,2.136-1.284,5.006-1.329,7.781c-0.052,3.027-0.102,6.156-1.06,8.282l-0.479-0.178c-0.848,0-1.586,0.097-2.329,0.199
	c-0.72,0.094-1.438,0.196-2.253,0.196c-0.314,0-0.643-0.016-0.992-0.05c-0.516-0.936-1.19-2.021-1.863-3.108
	c-1.059-1.718-2.123-3.44-3.331-5.008c-0.396,0.982-0.274,1.737-0.152,2.487c0.229,1.462,0.446,2.839,0.32,4.602
	c-0.8,0.409-2.643,1.426-4.729,1.426c-0.324,0-0.654-0.025-0.979-0.08c-1.733-5.624-1.599-11.578-1.437-18.472l0.076-4.02
	c1.482-0.431,3.062-0.739,4.805-0.739c0.395,0,0.81,0.017,1.235,0.051c1.519,2.152,2.858,4.859,4.154,7.477
	c0.735,1.49,1.474,2.982,2.285,4.4c1.457-5.983,2.57-12.666,5.799-17.04c0.081,0.052,0.243,0.055,0.427,0.055
	c0.064,0,0.137,0,0.201,0c0.699,0,1.292,0.096,1.884,0.197c0.622,0.102,1.246,0.203,1.965,0.203c0.228,0,0.464-0.01,0.708-0.035
	c2.025,4.48,3.219,10.331,4.38,15.986c0.896,4.399,1.827,8.944,3.265,12.91C66.297,72.859,66.089,72.808,65.854,72.808z"/>
</svg>
