<?xml version="1.0" encoding="utf-8"?>
<!-- Generator: Adobe Illustrator 16.0.4, SVG Export Plug-In . SVG Version: 6.00 Build 0)  -->
<!DOCTYPE svg PUBLIC "-//W3C//DTD SVG 1.1//EN" "http://www.w3.org/Graphics/SVG/1.1/DTD/svg11.dtd">
<svg version="1.1" id="pinterest" xmlns="http://www.w3.org/2000/svg" xmlns:xlink="http://www.w3.org/1999/xlink" x="0px" y="0px"
	 width="100px" height="100px" viewBox="0 0 100 100" enable-background="new 0 0 100 100" xml:space="preserve">
<path d="M49.763,11.176c-22.867,0-41.407,18.534-41.407,41.403c0,16.956,10.199,31.523,24.787,37.926
	c-0.115-2.895-0.019-6.361,0.723-9.51c0.793-3.357,5.325-22.561,5.325-22.561s-1.323-2.642-1.323-6.551
	c0-6.135,3.561-10.718,7.987-10.718c3.769,0,5.582,2.825,5.582,6.216c0,3.784-2.413,9.445-3.661,14.692
	c-1.034,4.393,2.206,7.978,6.541,7.978c7.847,0,13.13-10.077,13.13-22.018c0-9.073-6.117-15.866-17.23-15.866
	c-12.565,0-20.378,9.366-20.378,19.83c0,3.605,1.055,6.152,2.726,8.12c0.766,0.906,0.874,1.272,0.595,2.312
	c-0.2,0.76-0.657,2.592-0.84,3.321c-0.283,1.045-1.129,1.423-2.076,1.035c-5.787-2.361-8.481-8.695-8.481-15.819
	c0-11.763,9.921-25.865,29.593-25.865c15.81,0,26.217,11.439,26.217,23.722c0,16.243-9.037,28.379-22.35,28.379
	c-4.468,0-8.673-2.422-10.112-5.165c0,0-2.406,9.538-2.915,11.38c-0.873,3.192-2.592,6.383-4.162,8.874
	c3.719,1.101,7.656,1.698,11.731,1.698c22.869,0,41.403-18.539,41.403-41.409C91.166,29.71,72.632,11.176,49.763,11.176z"/>
</svg>
