<?xml version="1.0" encoding="utf-8"?>
<!-- Generator: Adobe Illustrator 16.0.4, SVG Export Plug-In . SVG Version: 6.00 Build 0)  -->
<!DOCTYPE svg PUBLIC "-//W3C//DTD SVG 1.1//EN" "http://www.w3.org/Graphics/SVG/1.1/DTD/svg11.dtd">
<svg version="1.1" id="pinterest" xmlns="http://www.w3.org/2000/svg" xmlns:xlink="http://www.w3.org/1999/xlink" x="0px" y="0px"
	 width="26.5px" height="26.5px" viewBox="21.25 53.25 26.5 26.5" enable-background="new 21.25 53.25 26.5 26.5"
	 xml:space="preserve">
<path d="M34.5,53.25c-7.318,0-13.25,5.931-13.25,13.249c0,5.426,3.264,10.087,7.932,12.137c-0.037-0.927-0.006-2.036,0.232-3.044
	c0.253-1.073,1.704-7.22,1.704-7.22s-0.423-0.845-0.423-2.096c0-1.963,1.14-3.43,2.556-3.43c1.207,0,1.787,0.904,1.787,1.989
	c0,1.211-0.772,3.022-1.172,4.701c-0.331,1.405,0.706,2.553,2.093,2.553c2.511,0,4.202-3.225,4.202-7.046
	c0-2.903-1.958-5.077-5.514-5.077c-4.021,0-6.521,2.998-6.521,6.346c0,1.153,0.337,1.969,0.873,2.599
	c0.245,0.29,0.279,0.407,0.19,0.74c-0.064,0.243-0.21,0.829-0.269,1.062c-0.09,0.334-0.361,0.455-0.664,0.331
	c-1.852-0.756-2.714-2.782-2.714-5.062c0-3.764,3.175-8.276,9.47-8.276c5.06,0,8.39,3.66,8.39,7.591
	c0,5.198-2.892,9.082-7.152,9.082c-1.43,0-2.775-0.775-3.236-1.653c0,0-0.77,3.053-0.933,3.642c-0.279,1.021-0.829,2.043-1.332,2.84
	c1.19,0.353,2.45,0.543,3.754,0.543c7.318,0,13.249-5.933,13.249-13.251C47.75,59.181,41.818,53.25,34.5,53.25z"/>
</svg>
