<?xml version="1.0" encoding="utf-8"?>
<!-- Generator: Adobe Illustrator 16.0.4, SVG Export Plug-In . SVG Version: 6.00 Build 0)  -->
<!DOCTYPE svg PUBLIC "-//W3C//DTD SVG 1.1//EN" "http://www.w3.org/Graphics/SVG/1.1/DTD/svg11.dtd">
<svg version="1.1" id="plaxo" xmlns="http://www.w3.org/2000/svg" xmlns:xlink="http://www.w3.org/1999/xlink" x="0px" y="0px"
	 width="100px" height="100px" viewBox="0 0 100 100" style="enable-background:new 0 0 100 100;" xml:space="preserve">
<path d="M50.1,11.008c-22.702,0-41.17,18.469-41.17,41.168c0,10.635,4.055,20.341,10.696,27.654l0.02-28.083
	c-0.024-8.61,2.874-15.851,8.7-21.727c5.825-5.877,13.037-8.83,21.633-8.856c8.59-0.03,15.836,2.881,21.744,8.717
	c5.902,5.841,8.866,13.065,8.896,21.671c0.026,8.605-2.892,15.867-8.758,21.786c-5.866,5.915-13.094,8.885-21.68,8.914
	c-2.389,0.006-4.318-0.744-5.795-2.25c-1.472-1.5-2.218-3.45-2.219-5.835c-0.012-2.388,0.717-4.32,2.186-5.799
	c1.465-1.471,3.389-2.214,5.776-2.222c3.971-0.013,7.367-1.442,10.179-4.286c2.816-2.845,4.221-6.265,4.205-10.256
	c-0.016-3.996-1.438-7.385-4.271-10.175c-2.834-2.782-6.238-4.171-10.218-4.16c-3.975,0.012-7.354,1.422-10.129,4.222
	c-2.778,2.797-4.157,6.191-4.143,10.178v39.099c4.469,1.666,9.302,2.58,14.346,2.58c22.7,0,41.171-18.47,41.171-41.171
	C91.271,29.477,72.8,11.008,50.1,11.008"/>
</svg>
