<?xml version="1.0" encoding="utf-8"?>
<!-- Generator: Adobe Illustrator 16.0.4, SVG Export Plug-In . SVG Version: 6.00 Build 0)  -->
<!DOCTYPE svg PUBLIC "-//W3C//DTD SVG 1.1//EN" "http://www.w3.org/Graphics/SVG/1.1/DTD/svg11.dtd">
<svg version="1.1" id="right_arrow" xmlns="http://www.w3.org/2000/svg" xmlns:xlink="http://www.w3.org/1999/xlink" x="0px"
	 y="0px" width="100px" height="100px" viewBox="0 0 100 100" enable-background="new 0 0 100 100" xml:space="preserve">
<path d="M35.717,24.396c0-0.969,0.349-1.817,1.062-2.521c0.72-0.71,1.574-1.068,2.559-1.068c1.027,0,1.898,0.364,2.612,1.088
	l24.93,25.31c0.71,0.723,1.071,1.597,1.071,2.641c0,1.106-0.361,1.936-1.071,2.502L41.95,77.744
	c-0.714,0.724-1.585,1.088-2.612,1.088c-0.959,0-1.801-0.358-2.53-1.062c-0.729-0.71-1.091-1.546-1.091-2.527V24.396L35.717,24.396z
	"/>
</svg>
