<?xml version="1.0" encoding="utf-8"?>
<!-- Generator: Adobe Illustrator 16.0.4, SVG Export Plug-In . SVG Version: 6.00 Build 0)  -->
<!DOCTYPE svg PUBLIC "-//W3C//DTD SVG 1.1//EN" "http://www.w3.org/Graphics/SVG/1.1/DTD/svg11.dtd">
<svg version="1.1" xmlns="http://www.w3.org/2000/svg" xmlns:xlink="http://www.w3.org/1999/xlink" x="0px" y="0px" width="32px"
	 height="32px" viewBox="0 0 32 32" enable-background="new 0 0 32 32" xml:space="preserve">
<g id="guides">
</g>
<g id="icon">
	<g>
		<path d="M2.865,21h2.99l-0.897,0.897C4.956,21.9,4.952,21.912,4.95,21.915l-0.017,0.019c-0.024,0.023-0.042,0.051-0.061,0.076
			c-0.023,0.03-0.044,0.061-0.062,0.095c-0.016,0.029-0.032,0.059-0.043,0.089c-0.004,0.009-0.01,0.017-0.013,0.026l-2.318,6.84
			c-0.088,0.26-0.02,0.547,0.177,0.741c0.141,0.138,0.329,0.212,0.521,0.212c0.077,0,0.156-0.013,0.231-0.037l6.956-2.28
			c0.006-0.002,0.011-0.007,0.018-0.009c0.05-0.018,0.099-0.041,0.144-0.068c0.002-0.001,0.005-0.002,0.007-0.004
			c0.043-0.027,0.083-0.074,0.119-0.11L17.205,21h3.104C21.337,21,23,20.208,23,19.196v-3.054l4.068-4.409
			c0.045-0.043-0.127-0.094-0.097-0.145l3.782-3.821c0.287-0.282,0.235-0.74-0.052-1.022l-4.663-4.56
			c-0.275-0.271-0.777-0.271-1.052,0l-2.891,2.989C21.871,4.41,21.156,4,20.309,4H2.865C1.836,4,1,4.52,1,5.531v13.666
			C1,20.208,1.836,21,2.865,21z M4.294,28.146l1.477-4.359l2.956,2.906L4.294,28.146z M21,19.196C21,19.412,20.525,20,20.309,20
			h-1.635L21,17.59V19.196z M20.919,15.333C20.919,15.333,20.918,15.333,20.919,15.333l-0.799,0.785l-10.031,9.869l-1.231-1.21
			l14.965-14.722l1.231,1.209L20.919,15.333z M25.495,3.719l3.596,3.538l-2.974,2.924L22.52,6.646L25.495,3.719z M22.783,9.032
			L7.818,23.754l-1.325-1.305L21.456,7.728L22.783,9.032z M3,5.531C3,5.317,2.646,6,2.865,6h17.443C20.525,6,21,5.317,21,5.531
			v0.865L7.324,20H2.865C2.647,20,3,19.411,3,19.196V5.531z"/>
		<path d="M4.812,11.556c0.144,0.141,0.333,0.212,0.519,0.212c0.188,0,0.376-0.07,0.52-0.211l1.768-1.738
			C7.757,9.684,7.834,9.5,7.834,9.308c0-0.191-0.077-0.375-0.215-0.511L5.851,7.059C5.565,6.778,5.099,6.777,4.812,7.06
			c-0.288,0.281-0.288,0.74,0,1.021l1.247,1.226l-1.247,1.227C4.525,10.818,4.525,11.274,4.812,11.556z"/>
		<path d="M8.909,12h2.104c0.407,0,0.735-0.601,0.735-0.999c0-0.4-0.328-1.001-0.735-1.001H8.909c-0.406,0-0.734,0.601-0.734,1.001
			C8.173,11.399,8.503,12,8.909,12z"/>
	</g>
</g>
</svg>
