<?xml version="1.0" encoding="utf-8"?>
<!-- Generator: Adobe Illustrator 16.0.4, SVG Export Plug-In . SVG Version: 6.00 Build 0)  -->
<!DOCTYPE svg PUBLIC "-//W3C//DTD SVG 1.1//EN" "http://www.w3.org/Graphics/SVG/1.1/DTD/svg11.dtd">
<svg version="1.1" xmlns="http://www.w3.org/2000/svg" xmlns:xlink="http://www.w3.org/1999/xlink" x="0px" y="0px" width="32px"
	 height="32px" viewBox="0 0 32 32" enable-background="new 0 0 32 32" xml:space="preserve">
<g id="guides">
</g>
<g id="icon">
	<g>
		<polygon points="18.475,15.139 23.035,17.01 18.475,18.908 18.475,20.855 25,17.842 25,16.19 18.475,13.205 		"/>
		<path d="M17.028,11.74c-0.251,0-0.42,0.078-0.506,0.233c-0.086,0.156-0.177,0.445-0.272,0.867l-1.81,7.932
			c-0.086,0.423-0.13,0.686-0.13,0.792c0,0.402,0.221,0.604,0.662,0.604c0.178,0,0.313-0.042,0.406-0.127
			c0.093-0.084,0.162-0.203,0.208-0.354c0.045-0.15,0.098-0.357,0.159-0.619l1.816-7.932c0.09-0.376,0.136-0.636,0.136-0.777
			c0-0.192-0.058-0.344-0.172-0.454S17.245,11.74,17.028,11.74z"/>
		<polygon points="7,17.842 13.525,20.842 13.525,18.895 8.979,16.996 13.525,15.139 13.525,13.178 7,16.178 		"/>
		<path d="M2.8,30h26.4c0.994,0,1.8-0.854,1.8-1.909V3.909C31,2.854,30.194,2,29.2,2H2.8C1.806,2,1,2.855,1,3.909v24.182
			C1,29.146,1.806,30,2.8,30z M28,3.272c0.662,0,1.2,0.571,1.2,1.273c0,0.701-0.539,1.272-1.2,1.272s-1.2-0.571-1.2-1.272
			C26.8,3.844,27.338,3.272,28,3.272z M24.7,3.272c0.662,0,1.2,0.571,1.2,1.273c0,0.701-0.538,1.272-1.2,1.272s-1.2-0.571-1.2-1.272
			C23.5,3.844,24.039,3.272,24.7,3.272z M21.4,3.272c0.662,0,1.2,0.571,1.2,1.273c0,0.701-0.538,1.272-1.2,1.272
			c-0.661,0-1.2-0.571-1.2-1.272C20.2,3.844,20.739,3.272,21.4,3.272z M2.8,7.091h26.4v21H2.8V7.091z"/>
	</g>
</g>
</svg>
