<?xml version="1.0" encoding="utf-8"?>
<!-- Generator: Adobe Illustrator 16.0.4, SVG Export Plug-In . SVG Version: 6.00 Build 0)  -->
<!DOCTYPE svg PUBLIC "-//W3C//DTD SVG 1.1//EN" "http://www.w3.org/Graphics/SVG/1.1/DTD/svg11.dtd">
<svg version="1.1" xmlns="http://www.w3.org/2000/svg" xmlns:xlink="http://www.w3.org/1999/xlink" x="0px" y="0px" width="32px"
	 height="32px" viewBox="0 0 32 32" enable-background="new 0 0 32 32" xml:space="preserve">
<g id="guides">
</g>
<g id="icon">
	<g>
		<rect y="9.833" fill-rule="evenodd" clip-rule="evenodd" width="6.298" height="13.281"/>
		<path fill-rule="evenodd" clip-rule="evenodd" d="M15.952,21.258l1.633,1.196c0,0,1.288,0.929,2.534,0
			c0.322-0.24,0.478-0.728,0.551-1.087c-0.355-0.491-0.837-1.056-1.411-1.469c-0.868-0.628-1.425-0.765-1.448-0.771
			c-0.294-0.063-0.482-0.344-0.42-0.632c0.062-0.288,0.353-0.472,0.652-0.412c0.078,0.016,0.793,0.176,1.874,0.957
			c0.75,0.543,1.354,1.276,1.769,1.873c0.202-0.077,0.404-0.213,0.568-0.452c0.271-0.394,0.388-0.852,0.438-1.216
			c-0.296-0.445-1.247-1.77-2.586-2.581c-1.165-0.705-1.913-0.853-1.932-0.857c-0.297-0.052-0.496-0.329-0.444-0.617
			c0.053-0.291,0.339-0.483,0.638-0.433c0.038,0.006,0.945,0.168,2.322,1c1.178,0.714,2.074,1.745,2.582,2.421
			c0.324-0.328,0.66-0.845,0.613-1.57c-0.138-2.126-3.081-4.053-3.081-4.053s1.925-0.393,4.282-0.423
			c3.182-0.041,4.827,0.209,5.375,0.224c0.469,0.013,1.265,0.208,1.518-0.662c0.195-0.668-0.97-1.131-0.97-1.131
			s-5.799-1.869-11.631-1.662c-5.675,0.204-11.328,2.392-11.328,2.392l-0.011,8.77c0,0,2.715,1.835,5.45,1.892
			C14.585,21.978,15.952,21.258,15.952,21.258z"/>
	</g>
</g>
</svg>
