<?xml version="1.0" encoding="utf-8"?>
<!-- Generator: Adobe Illustrator 16.0.4, SVG Export Plug-In . SVG Version: 6.00 Build 0)  -->
<!DOCTYPE svg PUBLIC "-//W3C//DTD SVG 1.1//EN" "http://www.w3.org/Graphics/SVG/1.1/DTD/svg11.dtd">
<svg version="1.1" id="talent_ignition" xmlns="http://www.w3.org/2000/svg" xmlns:xlink="http://www.w3.org/1999/xlink" x="0px"
	 y="0px" width="314.438px" height="100px" viewBox="0 0 314.438 100" style="enable-background:new 0 0 314.438 100;"
	 xml:space="preserve">
<g>
	<polygon points="0.108,61.439 7.392,61.442 7.382,93.803 11.021,93.806 11.027,61.442 18.219,61.446 18.219,57.903 0.108,57.9 	"/>
	<path d="M45.188,71.002c-3.021-3.912-6.77-4.98-10.248-4.983c-8.827,0-14.533,7.127-14.536,14.322
		c0,11.434,9.503,14.181,14.435,14.183c5.321,0,8.659-2.572,10.346-5.067l-0.102,4.353l3.494,0.003l0.004-27.146l-3.494-0.004
		L45.188,71.002z M34.682,91.249c-6.113,0-10.412-5-10.52-9.875c-0.145-10.019,6.657-12.079,10.571-12.079
		c6.26,0.003,10.415,5.699,10.455,10.837C45.252,86.406,40.012,91.252,34.682,91.249z"/>
	<rect x="54.845" y="57.908" width="3.495" height="35.906"/>
	<path d="M77.574,65.961c-10.016-0.003-14.533,7.689-14.533,14.207c0,8.379,6.877,14.361,14.47,14.364
		c5.48,0,10.146-2.571,13.188-9.335h-4.007c-2.465,4.683-6.11,5.911-9.426,5.911c-6.026,0-9.448-3.491-10.464-9.724l24.829,0.003
		C91.357,71.731,86.033,65.961,77.574,65.961z M77.212,69.253c5.847,0,9.127,3.264,10.503,9.168L66.9,78.418
		C67.908,73.079,70.89,69.25,77.212,69.253z"/>
	<path d="M108.321,66.105c-3.463-0.003-6.444,1.217-8.81,3.627v-3.054h-3.359l-0.004,27.141h3.36l0.003-13.241v-1.216
		c0-8.055,3.801-9.91,8.828-9.906c4.948,0,7.35,2.563,7.35,9.162l-0.004,15.204h3.491l0.004-15.612
		C119.181,69.735,114.595,66.105,108.321,66.105z"/>
	<polygon points="131.342,57.922 127.736,57.922 127.734,66.68 122.538,66.68 122.538,70.126 127.731,70.129 127.729,93.826 
		131.336,93.829 131.34,70.129 136.528,70.129 136.532,66.685 131.34,66.68 	"/>
	<rect x="153.104" y="57.926" width="3.639" height="35.906"/>
	<path d="M186.605,71.172c-3.552-4.701-7.695-5.198-10.414-5.198c-8.939-0.003-14.343,7.339-14.272,14.54
		c0.068,7.118,5.757,13.889,14.138,13.889c4.443,0,8.32-2.279,10.543-5.411c-0.5,9.629-4.864,11.996-10.414,11.996
		c-3.784,0-6.371-1.457-8.063-5.022h-4.089c1.479,5.192,6.339,8.42,12.461,8.42c7.35,0.003,13.488-4.419,13.488-15.112l0.004-22.582
		l-3.381-0.003V71.172z M176.283,91.127c-4.537,0-10.417-3.486-10.5-10.536c-0.152-8.206,6.115-11.325,10.408-11.322
		c6.719,0,10.414,6.325,10.414,11.1C186.601,85.925,181.949,91.127,176.283,91.127z"/>
	<path d="M208.197,66.122c-3.424,0-6.412,1.216-8.754,3.629v-3.058h-3.408l-0.006,27.146h3.41l0.004-13.241v-1.216
		c0-8.058,3.786-9.909,8.818-9.909c4.888,0.003,7.319,2.567,7.316,9.165v15.205h3.48l0.003-15.616
		C219.063,69.754,214.526,66.125,208.197,66.122z"/>
	<rect x="225.321" y="66.699" width="3.488" height="27.144"/>
	<rect x="225.325" y="57.941" width="3.487" height="5.613"/>
	<polygon points="241.088,57.94 237.494,57.94 237.491,66.699 232.249,66.699 232.248,70.146 237.491,70.149 237.487,93.845 
		241.08,93.848 241.083,70.149 246.27,70.152 246.27,66.703 241.083,66.699 	"/>
	<rect x="249.726" y="57.943" width="3.482" height="5.616"/>
	<rect x="249.724" y="66.703" width="3.481" height="27.146"/>
	<path d="M272.268,65.842c-9.88-0.003-14.374,8.469-14.374,14.477c0,7.971,7.096,14.274,13.617,14.277
		c9.036,0,14.874-6.871,14.874-14.557C286.391,71.267,278.671,65.846,272.268,65.842z M272.238,91.223
		c-5.393,0-10.486-3.719-10.568-11.023c-0.123-7.872,5.915-10.927,10.502-10.927c6.708,0.005,10.496,5.061,10.496,10.933
		C282.668,87.661,277.416,91.223,272.238,91.223z"/>
	<path d="M303.146,66.141c-3.421-0.003-6.413,1.213-8.743,3.626l0.004-3.059h-3.418l-0.007,27.146h3.418l0.003-13.242v-1.215
		c0-8.058,3.796-9.91,8.811-9.907c4.916,0,7.344,2.564,7.344,9.163l-0.003,15.204l3.466,0.003l0.002-15.619
		C314.024,69.77,309.474,66.141,303.146,66.141z"/>
</g>
</svg>
