<?xml version="1.0" encoding="utf-8"?>
<!-- Generator: Adobe Illustrator 16.0.4, SVG Export Plug-In . SVG Version: 6.00 Build 0)  -->
<!DOCTYPE svg PUBLIC "-//W3C//DTD SVG 1.1//EN" "http://www.w3.org/Graphics/SVG/1.1/DTD/svg11.dtd">
<svg version="1.1" id="twitter_tweet" xmlns="http://www.w3.org/2000/svg" xmlns:xlink="http://www.w3.org/1999/xlink" x="0px"
	 y="0px" width="100px" height="100px" viewBox="0 0 100 100" enable-background="new 0 0 100 100" xml:space="preserve">
<path d="M91.415,25.191c-3.051,1.444-6.322,2.42-9.757,2.859c3.509-2.247,6.2-5.795,7.474-10.023
	c-3.284,2.068-6.924,3.581-10.794,4.394c-3.1-3.519-7.516-5.719-12.404-5.719c-9.388,0-16.987,8.114-16.987,18.116
	c0,1.41,0.142,2.801,0.436,4.121c-14.127-0.755-26.65-7.967-35.028-18.925c-1.467,2.676-2.301,5.79-2.301,9.106
	c0,6.29,3.001,11.83,7.559,15.085c-2.788-0.098-5.407-0.914-7.692-2.274c0,0.083,0,0.157,0,0.233
	c0,8.782,5.854,16.102,13.629,17.763c-1.426,0.408-2.938,0.636-4.485,0.636c-1.091,0-2.159-0.114-3.193-0.324
	c2.157,7.198,8.432,12.43,15.878,12.579c-5.82,4.864-13.144,7.756-21.107,7.756c-1.368,0-2.727-0.083-4.055-0.251
	c7.521,5.139,16.458,8.135,26.053,8.135c31.257,0,48.35-27.602,48.35-51.545c0-0.788-0.017-1.566-0.046-2.346
	C86.253,32.015,89.142,28.829,91.415,25.191z"/>
</svg>
