<?xml version="1.0" encoding="utf-8"?>
<!-- Generator: Adobe Illustrator 16.0.4, SVG Export Plug-In . SVG Version: 6.00 Build 0)  -->
<!DOCTYPE svg PUBLIC "-//W3C//DTD SVG 1.1//EN" "http://www.w3.org/Graphics/SVG/1.1/DTD/svg11.dtd">
<svg version="1.1" xmlns="http://www.w3.org/2000/svg" xmlns:xlink="http://www.w3.org/1999/xlink" x="0px" y="0px" width="155px"
	 height="100px" viewBox="0 0 155 100" enable-background="new 0 0 155 100" xml:space="preserve">
<g id="guide">
</g>
<g id="uie">
	<g>
		<g>
			<path d="M148.723,73.371v-3.167c0-16.689-8.498-25.733-26.234-25.733c-16.812,0-27.736,8.392-27.736,24.521
				c0,18.922,12.324,25.078,26.051,25.078c17.556,0,25.68-5.783,27.356-16.411h-19.792c-0.656,3.358-3.082,4.848-5.604,4.848
				c-4.481,0-6.35-2.33-6.35-7.736v-1.401H148.723z M116.414,62.837c0-4.474,2.429-6.805,6.075-6.805
				c3.545,0,5.879,2.331,5.879,6.805v0.655h-11.954V62.837z M38.635,72.699c0,4.464-2.117,6.185-4.469,6.185
				c-2.349,0-4.469-1.72-4.469-6.185V45.871H7.277V73.64c0,13.618,9.797,20.431,26.89,20.431s26.895-6.812,26.895-20.431V45.871
				H38.635V72.699z M66.909,92.669h22.598V45.871H66.909V92.669z M86.455,21.378l-5.124-2.985l-3.133,5.614l-3.13-5.614
				l-5.127,2.985L73,26.992h-6.116v5.684H73l-3.06,5.611l5.127,2.988l3.13-5.615l3.133,5.615l5.124-2.988l-3.062-5.611h6.121v-5.684
				h-6.121L86.455,21.378z"/>
		</g>
	</g>
</g>
</svg>
