<?xml version="1.0" encoding="utf-8"?>
<!-- Generator: Adobe Illustrator 16.0.4, SVG Export Plug-In . SVG Version: 6.00 Build 0)  -->
<!DOCTYPE svg PUBLIC "-//W3C//DTD SVG 1.1//EN" "http://www.w3.org/Graphics/SVG/1.1/DTD/svg11.dtd">
<svg version="1.1" id="up_arrow" xmlns="http://www.w3.org/2000/svg" xmlns:xlink="http://www.w3.org/1999/xlink" x="0px" y="0px"
	 width="100px" height="100px" viewBox="0 0 100 100" enable-background="new 0 0 100 100" xml:space="preserve">
<path d="M24.564,65.936c-0.969,0-1.817-0.349-2.521-1.062c-0.71-0.72-1.068-1.574-1.068-2.559c0-1.027,0.364-1.898,1.088-2.612
	l25.31-24.93c0.723-0.71,1.597-1.071,2.641-1.071c1.106,0,1.936,0.361,2.502,1.071l25.397,24.93C78.636,60.417,79,61.288,79,62.315
	c0,0.959-0.358,1.801-1.062,2.53c-0.71,0.729-1.546,1.091-2.527,1.091H24.564L24.564,65.936z"/>
</svg>
