<?xml version="1.0" encoding="utf-8"?>
<!-- Generator: Adobe Illustrator 16.0.4, SVG Export Plug-In . SVG Version: 6.00 Build 0)  -->
<!DOCTYPE svg PUBLIC "-//W3C//DTD SVG 1.1//EN" "http://www.w3.org/Graphics/SVG/1.1/DTD/svg11.dtd">
<svg version="1.1" id="viadeo" xmlns="http://www.w3.org/2000/svg" xmlns:xlink="http://www.w3.org/1999/xlink" x="0px" y="0px"
	 width="100px" height="100px" viewBox="0 0 100 100" style="enable-background:new 0 0 100 100;" xml:space="preserve">
<g>
	<path d="M47.562,11.686c6.855,11.503,10.574,21.832,11.412,24.286c-0.004-0.064-0.007-0.103-0.007-0.103
		C57.291,18.137,47.562,11.686,47.562,11.686z"/>
	<path d="M81.779,13.556c-3.48,7.394-9.925,8.768-9.925,8.768c-6.444,1.636-8.699,4.122-8.699,4.122
		c-6.444,6.479-1.368,14.335-1.368,14.335c13.912-3.166,18.999-14.6,18.999-14.6c-0.618,7.682-17.18,16.756-17.18,16.756
		c5.478,5.365,10.714,4.718,14.17,2.66c4.583-2.727,6.78-8.699,6.78-8.699C88.996,23.633,81.779,13.556,81.779,13.556z"/>
	<path d="M64.241,55.448c1.176,2.802,1.769,5.856,1.769,9.17c0,4.084-0.976,7.891-2.925,11.421c-1.95,3.529-4.583,6.255-7.9,8.176
		c-3.318,1.921-6.961,2.881-10.928,2.881c-0.046,0-0.09-0.004-0.137-0.004c0.098-0.003,0.19-0.002,0.288-0.007
		c0,0,27.253-17.188,14.751-50.561c0,0-0.062-0.193-0.186-0.553c0.156,2.244,2.65,42.531-18.606,50.789
		c-2.488-0.429-4.837-1.271-7.038-2.545c-3.318-1.921-5.952-4.646-7.901-8.176c-1.949-3.53-2.924-7.337-2.924-11.421
		c0-6.334,2.138-11.732,6.413-16.196c4.274-4.465,9.389-6.697,15.34-6.697c2.831,0,5.473,0.518,7.932,1.539
		c0.246-2.587,1.154-4.994,2.159-6.96c-3.094-1.122-6.447-1.69-10.065-1.69c-8.604,0-15.723,3.166-21.355,9.5
		c-5.122,5.745-7.683,12.528-7.683,20.349c0,7.891,2.706,14.787,8.117,20.688S35.746,94,44.282,94c8.501,0,15.458-2.95,20.869-8.851
		s8.117-12.797,8.117-20.688c0-4.222-0.747-8.137-2.227-11.749C68.558,54.241,66.197,55.041,64.241,55.448z"/>
</g>
<path d="M91.796,73.067"/>
</svg>
