<svg xmlns="http://www.w3.org/2000/svg" xmlns:xlink="http://www.w3.org/1999/xlink" version="1.1" x="0px" y="0px" width="100px" height="100px" viewBox="0 0 100 100" enable-background="new 0 0 100 100" xml:space="preserve"><path d="M71.169 94.479c0.848-0.478 1.672-0.99 2.474-1.533c0.141-0.096 0.277-0.198 0.417-0.295 c0.649-0.453 1.281-0.929 1.896-1.426c0.173-0.14 0.348-0.279 0.519-0.422c0.724-0.61 1.431-1.24 2.099-1.913 c0.614-0.618 1.193-1.261 1.755-1.915c0.16-0.185 0.313-0.373 0.468-0.561c0.405-0.49 0.795-0.988 1.172-1.495 c0.155-0.208 0.314-0.414 0.464-0.625c0.46-0.647 0.902-1.304 1.317-1.975c0.17-0.274 0.324-0.556 0.487-0.834 c0.245-0.419 0.485-0.839 0.712-1.266c0.196-0.367 0.385-0.736 0.568-1.109c0.167-0.341 0.326-0.686 0.483-1.031 c0.385-0.845 0.739-1.702 1.061-2.571c0.064-0.175 0.138-0.348 0.2-0.524c0.169-0.477 0.319-0.959 0.469-1.442 c0.084-0.273 0.168-0.547 0.247-0.822c0.138-0.481 0.27-0.963 0.389-1.449c0.068-0.278 0.126-0.559 0.188-0.838 c0.174-0.785 0.324-1.573 0.449-2.366c0.062-0.387 0.125-0.773 0.175-1.162c0.05-0.392 0.09-0.784 0.128-1.177 c0.048-0.483 0.084-0.966 0.114-1.45c0.018-0.305 0.042-0.608 0.052-0.914c0.031-0.817 0.039-1.634 0.02-2.451 c-0.002-0.073-0.008-0.146-0.01-0.22c-0.016-0.541-0.035-1.081-0.073-1.62l-0.032-0.046c-0.086-1.167-0.21-2.331-0.402-3.488 l0.019 0.005c-0.166-0.99-0.375-1.974-0.618-2.952c-0.024-0.101-0.059-0.2-0.085-0.3c-0.204-0.792-0.421-1.583-0.675-2.363 c-0.271-0.837-0.578-1.665-0.909-2.484c-0.02-0.05-0.035-0.102-0.056-0.152c-0.006-0.014-0.01-0.029-0.016-0.043l-0.005-0.002 c-1.536-3.74-3.702-7.273-6.471-10.438c0.008 0 0.016-0.002 0.024-0.002l-0.002-0.003c-0.478-0.545-0.989-1.088-1.506-1.614 c-0.036-0.037-0.067-0.077-0.104-0.113l-7.144-7.193L50.003 6.303L50 6.306l-0.003-0.003l-21.426 21.58l-7.144 7.2 c-0.036 0.037-0.067 0.077-0.104 0.113c-0.517 0.525-1.028 1.068-1.506 1.614l-0.002 0.003c0.008 0 0 0 0 0 c-2.769 3.166-4.935 6.698-6.471 10.438l-0.005 0.002c-0.006 0.014-0.01 0.029-0.016 0.043c-0.021 0.05-0.036 0.102-0.056 0.2 c-0.331 0.819-0.637 1.647-0.909 2.484c-0.254 0.781-0.472 1.571-0.675 2.363c-0.026 0.101-0.061 0.2-0.085 0.3 c-0.243 0.978-0.453 1.962-0.618 2.952l0.019-0.005c-0.191 1.157-0.315 2.321-0.402 3.488l-0.032 0 c-0.038 0.539-0.057 1.079-0.073 1.62c-0.002 0.073-0.008 0.146-0.01 0.22c-0.02 0.817-0.012 1.6 0 2.5 c0.011 0.3 0 0.6 0.1 0.914c0.03 0.5 0.1 1 0.1 1.45c0.038 0.4 0.1 0.8 0.1 1.2 c0.05 0.4 0.1 0.8 0.2 1.162c0.125 0.8 0.3 1.6 0.4 2.366c0.062 0.3 0.1 0.6 0.2 0.8 c0.119 0.5 0.3 1 0.4 1.449c0.079 0.3 0.2 0.5 0.2 0.822c0.15 0.5 0.3 1 0.5 1.4 c0.062 0.2 0.1 0.3 0.2 0.524c0.322 0.9 0.7 1.7 1.1 2.571c0.157 0.3 0.3 0.7 0.5 1 c0.184 0.4 0.4 0.7 0.6 1.109c0.228 0.4 0.5 0.8 0.7 1.266c0.163 0.3 0.3 0.6 0.5 0.8 c0.415 0.7 0.9 1.3 1.3 1.975c0.15 0.2 0.3 0.4 0.5 0.625c0.377 0.5 0.8 1 1.2 1.5 c0.155 0.2 0.3 0.4 0.5 0.561c0.562 0.7 1.1 1.3 1.8 1.915c0.667 0.7 1.4 1.3 2.1 1.9 c0.171 0.1 0.3 0.3 0.5 0.422c0.615 0.5 1.2 1 1.9 1.426c0.14 0.1 0.3 0.2 0.4 0.3 c0.802 0.5 1.6 1.1 2.5 1.533c0.074 0 0.2 0.1 0.2 0.12c0.779 0.4 1.6 0.8 2.4 1.2 c0.085 0 0.2 0.1 0.2 0.127l0.004-0.01c3.95 1.8 8.3 3 12.7 3.509l-0.004 0 c0.202 0 0.4 0 0.6 0.058c0.519 0.1 1 0.1 1.6 0.15c0.314 0 0.6 0 0.9 0.1 c0.456 0 0.9 0.1 1.4 0.062c0.386 0 0.8 0 1.2 0.005s0.771 0 1.157-0.005 c0.457-0.011 0.912-0.038 1.368-0.062c0.315-0.017 0.631-0.028 0.945-0.052c0.521-0.039 1.041-0.094 1.56-0.15 c0.202-0.021 0.405-0.034 0.607-0.058l-0.004-0.005c4.415-0.534 8.717-1.707 12.667-3.509l0.004 0 c0.085-0.039 0.165-0.087 0.25-0.127c0.813-0.377 1.611-0.779 2.391-1.211C71.02 94.6 71.1 94.5 71.2 94.479z"/></svg>