<?xml version="1.0" encoding="utf-8"?>
<!-- Generator: Adobe Illustrator 16.0.4, SVG Export Plug-In . SVG Version: 6.00 Build 0)  -->
<!DOCTYPE svg PUBLIC "-//W3C//DTD SVG 1.1//EN" "http://www.w3.org/Graphics/SVG/1.1/DTD/svg11.dtd">
<svg version="1.1" id="vt" xmlns="http://www.w3.org/2000/svg" xmlns:xlink="http://www.w3.org/1999/xlink" x="0px" y="0px"
	 width="100px" height="100px" viewBox="0 0 100 100" style="enable-background:new 0 0 100 100;" xml:space="preserve">
<g>
	<path d="M86.636,47.25l-4.311,1.132l-0.649-2.44l1.521-0.41l-0.987-3.701c-0.522-1.97-1.526-2.758-3.001-2.359
		c-0.82,0.221-1.377,0.704-1.664,1.446c-0.287,0.743-0.269,1.72,0.053,2.934l0.794,2.977l1.522-0.41l0.647,2.44l-5.524,1.49
		l-0.647-2.44l1.518-0.411L74.21,41.11l-2.979,0.804l-0.645-2.42l5.461-1.473l0.407,1.528c0.349-1.333,1.217-2.188,2.599-2.561
		c0.381-0.104,0.753-0.174,1.131-0.181l-0.002-0.003c-0.512-0.583-1.058-1.168-1.611-1.727L50.003,6.303L21.427,35.077
		c-5.709,5.748-9.17,12.985-10.421,20.468l2.466-0.635l0.641,2.42l-1.354,0.365l3.245,4.51l0.615-5.551l-1.355,0.367l-0.642-2.421
		l5.336-1.442l0.645,2.42l-1.358,0.365l-1.14,9.77l-2.175,0.59l-5.338-7.229c-0.76,10.735,2.896,21.819,10.836,29.815
		c8.488,8.552,21.776,12.062,34.21,10.55l-0.016-0.02l-6.206-23.322l-14.517,3.917l-3.402-12.792l41.731-11.262l3.403,12.793
		l-14.519,3.917l6.182,23.241l0.011,0.024c3.843-1.75,7.338-4.1,10.267-7.046C89.498,77.884,92.337,61.166,86.636,47.25z
		 M68.835,36.265l0.66,2.483l-2.484,0.668l-0.657-2.479L68.835,36.265z M23.895,48.394l0.663,2.481l-2.486,0.67l-0.66-2.481
		L23.895,48.394z M23.805,64.176l-0.65-2.441l1.518-0.406l-1.695-6.393l-1.48,0.399l-0.642-2.417l3.959-1.07l2.343,8.807
		l1.521-0.407l0.646,2.438L23.805,64.176z M30.503,62.367l-2.351-8.828l-1.784,0.48l-0.646-2.417l1.789-0.483l-0.919-3.453
		l2.543-0.687l0.918,3.452l3.752-1.009c0,0-0.612,0.502-1.1,1.493c-0.386,0.776-0.424,1.511-0.424,1.511L30.7,52.853l1.696,6.389
		l1.584-0.425c0,0,0.258,0.386,0.899,0.947c0.786,0.688,1.747,0.955,1.747,0.95L30.503,62.367z M44.021,58.718l-0.341-1.284
		c-0.421,0.681-0.868,1.21-1.347,1.596c-0.477,0.389-1.062,0.676-1.763,0.865c-0.837,0.225-1.638,0.285-2.415,0.184
		c-0.775-0.099-1.486-0.344-2.144-0.729c-0.647-0.386-1.212-0.892-1.688-1.526c-0.479-0.632-0.827-1.376-1.057-2.23
		c-0.224-0.842-0.29-1.659-0.199-2.451c0.088-0.791,0.319-1.516,0.687-2.17c0.367-0.652,0.868-1.219,1.494-1.699
		c0.628-0.479,1.365-0.833,2.215-1.063c0.753-0.204,1.438-0.262,2.056-0.177c0.615,0.084,1.248,0.349,1.893,0.796l-0.362-1.365
		l3.98-1.074l0.647,2.417l-1.48,0.399l1.701,6.39l1.539-0.416l0.649,2.441L44.021,58.718z M62.347,53.772l-0.647-2.439l1.518-0.41
		l-1.112-4.176c-0.438-1.655-1.308-2.307-2.609-1.956c-0.711,0.193-1.203,0.602-1.465,1.228c-0.269,0.625-0.264,1.448,0.006,2.469
		l0.95,3.577l1.542-0.417l0.646,2.442l-5.482,1.479l-0.646-2.44l1.518-0.411l-1.107-4.175c-0.442-1.656-1.312-2.306-2.609-1.956
		c-0.716,0.19-1.203,0.6-1.47,1.226c-0.269,0.625-0.264,1.448,0.008,2.468l0.953,3.579l1.518-0.41l0.649,2.439l-5.521,1.49
		l-0.649-2.438l1.521-0.41l-1.702-6.39l-1.478,0.399l-0.645-2.42l3.962-1.069l0.397,1.489c0.159-0.663,0.447-1.198,0.859-1.606
		c0.41-0.406,0.975-0.707,1.688-0.899c0.722-0.195,1.382-0.202,1.97-0.022c0.594,0.181,1.161,0.552,1.704,1.114
		c0.327-0.812,0.711-1.443,1.147-1.895c0.439-0.451,1.007-0.77,1.704-0.959c1.232-0.331,2.292-0.189,3.182,0.426
		c0.892,0.618,1.547,1.72,1.968,3.304l1.129,4.239l1.541-0.416l0.65,2.44L62.347,53.772z M68.744,52.047l-0.649-2.439l1.521-0.41
		l-1.701-6.39l-3.228,0.862c0,0-0.157-0.427-0.839-1.142c-0.644-0.676-1.171-0.878-1.171-0.878l7.079-1.932l2.343,8.809l1.518-0.41
		l0.65,2.439L68.744,52.047z M41.92,51.818c-0.274-0.369-0.597-0.662-0.972-0.879c-0.373-0.218-0.785-0.356-1.241-0.418
		c-0.458-0.061-0.927-0.028-1.403,0.101c-0.452,0.122-0.856,0.32-1.206,0.591c-0.354,0.271-0.639,0.601-0.849,0.985
		c-0.219,0.381-0.354,0.799-0.418,1.251c-0.064,0.454-0.029,0.928,0.106,1.425c0.128,0.495,0.335,0.924,0.614,1.283
		c0.277,0.362,0.607,0.652,0.98,0.876c0.375,0.225,0.782,0.365,1.225,0.426c0.441,0.059,0.887,0.024,1.339-0.096
		c0.479-0.129,0.903-0.333,1.265-0.61c0.37-0.275,0.66-0.604,0.876-0.988c0.214-0.382,0.347-0.799,0.402-1.25
		s0.019-0.925-0.114-1.42C42.396,52.614,42.196,52.188,41.92,51.818z"/>
</g>
</svg>
