<?xml version="1.0" encoding="utf-8"?>
<!-- Generator: Adobe Illustrator 16.0.4, SVG Export Plug-In . SVG Version: 6.00 Build 0)  -->
<!DOCTYPE svg PUBLIC "-//W3C//DTD SVG 1.1//EN" "http://www.w3.org/Graphics/SVG/1.1/DTD/svg11.dtd">
<svg version="1.1" id="xing" xmlns="http://www.w3.org/2000/svg" xmlns:xlink="http://www.w3.org/1999/xlink" x="0px" y="0px"
	 width="100px" height="100px" viewBox="0 0 100 100" style="enable-background:new 0 0 100 100;" xml:space="preserve">
<g>
	<path d="M37.86,30.928c-0.585-1.042-1.47-2.204-3.272-2.204H22.834c-0.708,0-1.304,0.249-1.603,0.734
		c-0.31,0.502-0.262,1.149,0.066,1.803l7.947,13.757c0.014,0.027,0.014,0.043,0,0.067L16.758,67.123
		c-0.326,0.649-0.311,1.301,0,1.803c0.299,0.483,0.827,0.801,1.535,0.801h11.754c1.758,0,2.604-1.186,3.205-2.271
		c0,0,12.213-21.6,12.688-22.438C45.893,44.941,37.86,30.928,37.86,30.928z"/>
	<path d="M85.624,15.194c0.325-0.649,0.333-1.312,0.024-1.814c-0.3-0.483-0.855-0.75-1.563-0.75H72.211
		c-1.755,0-2.516,1.106-3.146,2.238c0,0-25.32,44.904-26.154,46.378c0.043,0.08,16.701,30.639,16.701,30.639
		c0.582,1.042,1.482,2.238,3.282,2.238h11.74c0.708,0,1.261-0.267,1.561-0.75c0.312-0.502,0.304-1.165-0.024-1.816L59.601,61.284
		c-0.017-0.024-0.017-0.053,0-0.077L85.624,15.194z"/>
</g>
</svg>
