<?xml version="1.0" encoding="utf-8"?>
<!-- Generator: Adobe Illustrator 16.0.4, SVG Export Plug-In . SVG Version: 6.00 Build 0)  -->
<!DOCTYPE svg PUBLIC "-//W3C//DTD SVG 1.1//EN" "http://www.w3.org/Graphics/SVG/1.1/DTD/svg11.dtd">
<svg version="1.1" id="youtube2" xmlns="http://www.w3.org/2000/svg" xmlns:xlink="http://www.w3.org/1999/xlink" x="0px" y="0px"
	 width="100px" height="100px" viewBox="0 0 100 100" style="enable-background:new 0 0 100 100;" xml:space="preserve">
<style type="text/css">
<![CDATA[
	.st0{fill-rule:evenodd;clip-rule:evenodd;}
]]>
</style>
<g>
	<path class="st0" d="M44.592,75.865c-0.793,1.119-1.542,1.671-2.258,1.671c-0.478,0-0.751-0.281-0.837-0.836
		c-0.033-0.114-0.033-0.552-0.033-1.388V60.795h-3.571v15.592c0,1.393,0.118,2.333,0.315,2.931c0.357,1,1.15,1.467,2.302,1.467
		c1.313,0,2.662-0.793,4.082-2.422v2.151h3.575V60.795h-3.575V75.865z"/>
	<polygon class="st0" points="24.916,57.775 29.118,57.775 29.118,80.514 33.092,80.514 33.092,57.775 37.371,57.775 37.371,54.049 
		24.916,54.049 	"/>
	<path class="st0" d="M49.247,40.534c1.164,0,1.722-0.923,1.722-2.766v-8.383c0-1.843-0.558-2.761-1.722-2.761
		c-1.165,0-1.724,0.918-1.724,2.761v8.383C47.523,39.61,48.082,40.534,49.247,40.534z"/>
	<path class="st0" d="M58.523,60.554c-1.312,0-2.537,0.719-3.69,2.139v-8.644H51.26v26.465h3.573v-1.913
		c1.192,1.478,2.421,2.184,3.69,2.184c1.424,0,2.379-0.749,2.856-2.216c0.238-0.835,0.359-2.149,0.359-3.973v-7.853
		c0-1.866-0.121-3.169-0.359-3.963C60.902,61.303,59.947,60.554,58.523,60.554z M58.168,74.877c0,1.781-0.524,2.659-1.555,2.659
		c-0.588,0-1.183-0.281-1.78-0.878V64.638c0.598-0.587,1.192-0.868,1.78-0.868c1.03,0,1.555,0.913,1.555,2.691V74.877z"/>
	<path class="st0" d="M69.904,60.554c-1.823,0-3.247,0.672-4.279,2.022c-0.76,0.998-1.104,2.537-1.104,4.645v6.908
		c0,2.095,0.389,3.652,1.148,4.637c1.031,1.346,2.453,2.02,4.323,2.02c1.866,0,3.331-0.707,4.321-2.137
		c0.433-0.634,0.714-1.351,0.835-2.142c0.032-0.358,0.076-1.151,0.076-2.301v-0.522h-3.647c0,1.433-0.045,2.226-0.077,2.42
		c-0.204,0.955-0.718,1.433-1.597,1.433c-1.227,0-1.823-0.911-1.823-2.736v-3.495h7.145v-4.085c0-2.107-0.359-3.647-1.106-4.645
		C73.119,61.226,71.696,60.554,69.904,60.554z M71.652,68.33h-3.571v-1.823c0-1.824,0.597-2.736,1.79-2.736
		c1.184,0,1.781,0.913,1.781,2.736V68.33z"/>
	<path class="st0" d="M83.564,11.7H16.688c-4.155,0-7.524,3.369-7.524,7.525v66.876c0,4.156,3.369,7.525,7.524,7.525h66.876
		c4.156,0,7.524-3.369,7.524-7.525V19.225C91.089,15.069,87.721,11.7,83.564,11.7z M57.553,23.613h3.6v14.669
		c0,0.848,0,1.289,0.043,1.405c0.079,0.56,0.362,0.846,0.848,0.846c0.721,0,1.479-0.56,2.278-1.691V23.613h3.612v19.926h-3.612
		v-2.174c-1.436,1.649-2.808,2.45-4.124,2.45c-1.163,0-1.965-0.473-2.325-1.482c-0.2-0.602-0.319-1.557-0.319-2.962V23.613z
		 M43.913,30.108c0-2.129,0.363-3.687,1.131-4.694c0.998-1.361,2.404-2.042,4.203-2.042c1.81,0,3.213,0.682,4.213,2.042
		c0.756,1.007,1.12,2.564,1.12,4.694v6.98c0,2.118-0.364,3.687-1.12,4.687c-1,1.358-2.403,2.04-4.213,2.04
		c-1.799,0-3.205-0.682-4.203-2.04c-0.768-1-1.131-2.569-1.131-4.687V30.108z M34.258,16.8l2.843,10.5l2.729-10.5h4.05L39.063,32.71
		v10.828h-4.005V32.71c-0.362-1.921-1.163-4.732-2.446-8.46c-0.846-2.48-1.725-4.973-2.567-7.45H34.258z M78.595,81.698
		c-0.722,3.144-3.296,5.462-6.39,5.809c-7.332,0.818-14.752,0.823-22.139,0.818c-7.388,0.005-14.809,0-22.14-0.818
		c-3.096-0.346-5.665-2.665-6.388-5.809c-1.031-4.478-1.031-9.366-1.031-13.976c0-4.611,0.013-9.497,1.043-13.977
		c0.723-3.143,3.292-5.461,6.389-5.807c7.33-0.821,14.751-0.823,22.139-0.821c7.387-0.002,14.807,0,22.14,0.821
		c3.094,0.346,5.666,2.664,6.39,5.807c1.029,4.48,1.024,9.366,1.024,13.977C79.632,72.333,79.625,77.221,78.595,81.698z"/>
</g>
</svg>
