<?xml version="1.0" encoding="utf-8"?>
<!-- Generator: Adobe Illustrator 16.0.4, SVG Export Plug-In . SVG Version: 6.00 Build 0)  -->
<!DOCTYPE svg PUBLIC "-//W3C//DTD SVG 1.1//EN" "http://www.w3.org/Graphics/SVG/1.1/DTD/svg11.dtd">
<svg version="1.1" id="pinterest" xmlns="http://www.w3.org/2000/svg" xmlns:xlink="http://www.w3.org/1999/xlink" x="0px" y="0px"
	 width="100px" height="100px" viewBox="0 0 100 100" style="enable-background:new 0 0 100 100;" xml:space="preserve">
<style type="text/css">
<![CDATA[
	.st0{fill-rule:evenodd;clip-rule:evenodd;}
]]>
</style>
<g>
	<path class="st0" d="M61.576,42.866c1.496,0,3.057-0.911,4.688-2.785v2.471h4.104V19.907h-4.104v17.308
		c-0.908,1.286-1.771,1.922-2.591,1.922c-0.551,0-0.872-0.325-0.963-0.962c-0.049-0.132-0.049-0.633-0.049-1.597V19.907H58.57
		v17.907c0,1.597,0.137,2.683,0.363,3.368C59.344,42.329,60.255,42.866,61.576,42.866z"/>
	<path class="st0" d="M33.005,30.246v12.307h4.552V30.246l5.474-18.082h-4.602l-3.102,11.933l-3.231-11.933h-4.788
		c0.957,2.815,1.958,5.647,2.918,8.467C31.684,24.868,32.594,28.063,33.005,30.246z"/>
	<path class="st0" d="M49.132,42.866c2.056,0,3.649-0.775,4.786-2.319c0.86-1.136,1.274-2.92,1.274-5.326v-7.933
		c0-2.42-0.414-4.19-1.274-5.335c-1.137-1.546-2.73-2.321-4.786-2.321c-2.044,0-3.644,0.774-4.778,2.321
		c-0.872,1.145-1.284,2.915-1.284,5.335v7.933c0,2.406,0.412,4.19,1.284,5.326C45.488,42.091,47.088,42.866,49.132,42.866z
		 M47.172,26.466c0-2.095,0.636-3.139,1.96-3.139c1.323,0,1.956,1.043,1.956,3.139v9.527c0,2.095-0.633,3.144-1.956,3.144
		c-1.324,0-1.96-1.049-1.96-3.144V26.466z"/>
	<path class="st0" d="M57.503,65.546c-0.669,0-1.345,0.319-2.023,0.986v13.662c0.679,0.678,1.354,0.998,2.023,0.998
		c1.171,0,1.768-0.998,1.768-3.022v-9.564C59.271,66.583,58.674,65.546,57.503,65.546z"/>
	<path class="st0" d="M72.57,65.546c-1.356,0-2.035,1.037-2.035,3.109v2.073h4.059v-2.073C74.594,66.583,73.916,65.546,72.57,65.546
		z"/>
	<path class="st0" d="M82.5,54.153c-0.823-3.572-3.746-6.208-7.263-6.6c-8.334-0.933-16.766-0.936-25.161-0.933
		c-8.396-0.002-16.83,0-25.162,0.933c-3.518,0.393-6.44,3.028-7.26,6.6c-1.171,5.091-1.186,10.644-1.186,15.885
		c0,5.239,0,10.794,1.172,15.883c0.821,3.574,3.742,6.208,7.26,6.602c8.33,0.93,16.766,0.936,25.162,0.93
		c8.395,0.006,16.827,0,25.161-0.93c3.517-0.394,6.441-3.028,7.262-6.602c1.172-5.089,1.179-10.644,1.179-15.883
		C83.664,64.797,83.669,59.244,82.5,54.153z M35.634,58.732h-4.863v25.843h-4.516V58.732h-4.776v-4.235h14.155V58.732z
		 M47.903,84.576H43.84v-2.445c-1.612,1.851-3.146,2.753-4.64,2.753c-1.308,0-2.21-0.531-2.615-1.668
		c-0.224-0.678-0.358-1.747-0.358-3.331v-17.72h4.059v16.499c0,0.95,0,1.448,0.036,1.577c0.099,0.631,0.409,0.951,0.952,0.951
		c0.814,0,1.666-0.628,2.566-1.9V62.165h4.063V84.576z M63.329,77.85c0,2.073-0.139,3.565-0.408,4.515
		c-0.542,1.668-1.629,2.519-3.247,2.519c-1.443,0-2.84-0.803-4.194-2.481v2.173h-4.061V54.497h4.061v9.825
		c1.311-1.614,2.702-2.432,4.194-2.432c1.618,0,2.705,0.851,3.247,2.53c0.27,0.902,0.408,2.384,0.408,4.504V77.85z M78.656,74.11
		h-8.121v3.972c0,2.075,0.679,3.11,2.073,3.11c0.999,0,1.583-0.543,1.814-1.628c0.036-0.221,0.087-1.123,0.087-2.751h4.146v0.593
		c0,1.307-0.05,2.208-0.086,2.616c-0.139,0.899-0.458,1.713-0.949,2.434c-1.125,1.625-2.79,2.428-4.912,2.428
		c-2.125,0-3.741-0.766-4.914-2.296c-0.862-1.119-1.304-2.889-1.304-5.269v-7.851c0-2.396,0.391-4.145,1.255-5.279
		c1.172-1.535,2.789-2.298,4.862-2.298c2.036,0,3.654,0.763,4.791,2.298c0.848,1.134,1.257,2.883,1.257,5.279V74.11z"/>
</g>
</svg>
